<?xml version="1.0" encoding="utf-8"?>
<!-- Generator: Adobe Illustrator 30.4.0, SVG Export Plug-In . SVG Version: 9.03 Build 0)  -->
<svg version="1.1"
	 id="Layer_1" xmlns:cc="http://creativecommons.org/ns#" xmlns:inkscape="http://www.inkscape.org/namespaces/inkscape" xmlns:rdf="http://www.w3.org/1999/02/22-rdf-syntax-ns#" xmlns:dc="http://purl.org/dc/elements/1.1/" xmlns:svg="http://www.w3.org/2000/svg"
	 xmlns="http://www.w3.org/2000/svg" xmlns:xlink="http://www.w3.org/1999/xlink" x="0px" y="0px" viewBox="0 0 636.66 579.4"
	 style="enable-background:new 0 0 636.66 579.4;" xml:space="preserve">
<g id="p-5">
	<path d="M37.56,151.09h12.05v8.93c0,0.08,0.06,0.14,0.14,0.14h9.07c0.08,0,0.14-0.06,0.14-0.14v-8.93h8.79v8.93
		c0,0.08,0.06,0.14,0.14,0.14h9.07c0.08,0,0.14-0.06,0.14-0.14v-8.93h8.79v8.93c0,0.08,0.06,0.14,0.14,0.14h9.07
		c0.08,0,0.14-0.06,0.14-0.14v-8.93h8.79v8.93c0,0.08,0.06,0.14,0.14,0.14h9.07c0.08,0,0.14-0.06,0.14-0.14v-8.93h8.79v8.93
		c0,0.08,0.06,0.14,0.14,0.14h9.07c0.08,0,0.14-0.06,0.14-0.14v-8.93h8.79v8.93c0,0.08,0.06,0.14,0.14,0.14h9.07
		c0.08,0,0.14-0.06,0.14-0.14v-8.93h8.79v8.93c0,0.08,0.06,0.14,0.14,0.14h9.07c0.08,0,0.14-0.06,0.14-0.14v-8.93h8.79v8.93
		c0,0.08,0.06,0.14,0.14,0.14h9.07c0.08,0,0.14-0.06,0.14-0.14v-8.93h8.79v8.93c0,0.08,0.06,0.14,0.14,0.14h9.07
		c0.08,0,0.14-0.06,0.14-0.14v-8.93h8.79v8.93c0,0.08,0.06,0.14,0.14,0.14h9.07c0.08,0,0.14-0.06,0.14-0.14v-8.93h8.79v8.93
		c0,0.08,0.06,0.14,0.14,0.14h9.07c0.08,0,0.14-0.06,0.14-0.14v-8.93h8.79v8.93c0,0.08,0.06,0.14,0.14,0.14h9.07
		c0.08,0,0.14-0.06,0.14-0.14v-8.93h8.79v8.93c0,0.08,0.06,0.14,0.14,0.14h9.07c0.08,0,0.14-0.06,0.14-0.14v-8.93h8.79v8.93
		c0,0.08,0.06,0.14,0.14,0.14h9.07c0.08,0,0.14-0.06,0.14-0.14v-8.93h12.05c0.08,0,0.14-0.06,0.14-0.14v-15.73h8.93
		c0.08,0,0.14-0.06,0.14-0.14V126c0-0.08-0.06-0.14-0.14-0.14h-8.93v-8.79h8.93c0.08,0,0.14-0.06,0.14-0.14v-9.07
		c0-0.08-0.06-0.14-0.14-0.14h-8.93v-8.79h8.93c0.08,0,0.14-0.06,0.14-0.14v-9.07c0-0.08-0.06-0.14-0.14-0.14h-8.93v-8.79h8.93
		c0.08,0,0.14-0.06,0.14-0.14v-9.07c0-0.08-0.06-0.14-0.14-0.14h-8.93v-8.79h8.93c0.08,0,0.14-0.06,0.14-0.14v-9.07
		c0-0.08-0.06-0.14-0.14-0.14h-8.93V37.56c0-0.08-0.06-0.14-0.14-0.14H294.8v-8.93c0-0.08-0.06-0.14-0.14-0.14h-9.07
		c-0.08,0-0.14,0.06-0.14,0.14v8.93h-8.79v-8.93c0-0.08-0.06-0.14-0.14-0.14h-9.07c-0.08,0-0.14,0.06-0.14,0.14v8.93h-8.79v-8.93
		c0-0.08-0.06-0.14-0.14-0.14h-9.07c-0.08,0-0.14,0.06-0.14,0.14v8.93h-8.79v-8.93c0-0.08-0.06-0.14-0.14-0.14h-9.07
		c-0.08,0-0.14,0.06-0.14,0.14v8.93h-8.79v-8.93c0-0.08-0.06-0.14-0.14-0.14h-9.07c-0.08,0-0.14,0.06-0.14,0.14v8.93h-8.79v-8.93
		c0-0.08-0.06-0.14-0.14-0.14h-9.07c-0.08,0-0.14,0.06-0.14,0.14v8.93h-8.79v-8.93c0-0.08-0.06-0.14-0.14-0.14h-9.07
		c-0.08,0-0.14,0.06-0.14,0.14v8.93h-8.79v-8.93c0-0.08-0.06-0.14-0.14-0.14h-9.07c-0.08,0-0.14,0.06-0.14,0.14v8.93h-8.79v-8.93
		c0-0.08-0.06-0.14-0.14-0.14h-9.07c-0.08,0-0.14,0.06-0.14,0.14v8.93h-8.79v-8.93c0-0.08-0.06-0.14-0.14-0.14h-9.07
		c-0.08,0-0.14,0.06-0.14,0.14v8.93h-8.79v-8.93c0-0.08-0.06-0.14-0.14-0.14h-9.07c-0.08,0-0.14,0.06-0.14,0.14v8.93h-8.79v-8.93
		c0-0.08-0.06-0.14-0.14-0.14h-9.07c-0.08,0-0.14,0.06-0.14,0.14v8.93H77.1v-8.93c0-0.08-0.06-0.14-0.14-0.14h-9.07
		c-0.08,0-0.14,0.06-0.14,0.14v8.93h-8.79v-8.93c0-0.08-0.06-0.14-0.14-0.14h-9.07c-0.08,0-0.14,0.06-0.14,0.14v8.93H37.56
		c-0.08,0-0.14,0.06-0.14,0.14v15.73h-8.93c-0.08,0-0.14,0.06-0.14,0.14v9.07c0,0.08,0.06,0.14,0.14,0.14h8.93v8.79h-8.93
		c-0.08,0-0.14,0.06-0.14,0.14v9.07c0,0.08,0.06,0.14,0.14,0.14h8.93v8.79h-8.93c-0.08,0-0.14,0.06-0.14,0.14v9.07
		c0,0.08,0.06,0.14,0.14,0.14h8.93v8.79h-8.93c-0.08,0-0.14,0.06-0.14,0.14v9.07c0,0.08,0.06,0.14,0.14,0.14h8.93v8.79h-8.93
		c-0.08,0-0.14,0.06-0.14,0.14v9.07c0,0.08,0.06,0.14,0.14,0.14h8.93v15.73C37.42,151.02,37.48,151.09,37.56,151.09z"/>
</g>
<g id="p-6">
	<path d="M329.81,151.09h12.05v8.93c0,0.08,0.06,0.14,0.14,0.14h9.07c0.08,0,0.14-0.06,0.14-0.14v-8.93H360v8.93
		c0,0.08,0.06,0.14,0.14,0.14h9.07c0.08,0,0.14-0.06,0.14-0.14v-8.93h8.79v8.93c0,0.08,0.06,0.14,0.14,0.14h9.07
		c0.08,0,0.14-0.06,0.14-0.14v-8.93h8.79v8.93c0,0.08,0.06,0.14,0.14,0.14h9.07c0.08,0,0.14-0.06,0.14-0.14v-8.93h8.79v8.93
		c0,0.08,0.06,0.14,0.14,0.14h9.07c0.08,0,0.14-0.06,0.14-0.14v-8.93h8.79v8.93c0,0.08,0.06,0.14,0.14,0.14h9.07
		c0.08,0,0.14-0.06,0.14-0.14v-8.93h8.79v8.93c0,0.08,0.06,0.14,0.14,0.14h9.07c0.08,0,0.14-0.06,0.14-0.14v-8.93h8.79v8.93
		c0,0.08,0.06,0.14,0.14,0.14h9.07c0.08,0,0.14-0.06,0.14-0.14v-8.93h8.79v8.93c0,0.08,0.06,0.14,0.14,0.14h9.07
		c0.08,0,0.14-0.06,0.14-0.14v-8.93h8.79v8.93c0,0.08,0.06,0.14,0.14,0.14h9.07c0.08,0,0.14-0.06,0.14-0.14v-8.93h8.79v8.93
		c0,0.08,0.06,0.14,0.14,0.14h9.07c0.08,0,0.14-0.06,0.14-0.14v-8.93h8.79v8.93c0,0.08,0.06,0.14,0.14,0.14h9.07
		c0.08,0,0.14-0.06,0.14-0.14v-8.93h8.79v8.93c0,0.08,0.06,0.14,0.14,0.14h9.07c0.08,0,0.14-0.06,0.14-0.14v-8.93h8.79v8.93
		c0,0.08,0.06,0.14,0.14,0.14h9.07c0.08,0,0.14-0.06,0.14-0.14v-8.93h12.05c0.08,0,0.14-0.06,0.14-0.14v-15.73h8.93
		c0.08,0,0.14-0.06,0.14-0.14V126c0-0.08-0.06-0.14-0.14-0.14h-8.93v-8.79h8.93c0.08,0,0.14-0.06,0.14-0.14v-9.07
		c0-0.08-0.06-0.14-0.14-0.14h-8.93v-8.79h8.93c0.08,0,0.14-0.06,0.14-0.14v-9.07c0-0.08-0.06-0.14-0.14-0.14h-8.93v-8.79h8.93
		c0.08,0,0.14-0.06,0.14-0.14v-9.07c0-0.08-0.06-0.14-0.14-0.14h-8.93v-8.79h8.93c0.08,0,0.14-0.06,0.14-0.14v-9.07
		c0-0.08-0.06-0.14-0.14-0.14h-8.93V37.56c0-0.08-0.06-0.14-0.14-0.14h-12.05v-8.93c0-0.08-0.06-0.14-0.14-0.14h-9.07
		c-0.08,0-0.14,0.06-0.14,0.14v8.93h-8.79v-8.93c0-0.08-0.06-0.14-0.14-0.14h-9.07c-0.08,0-0.14,0.06-0.14,0.14v8.93h-8.79v-8.93
		c0-0.08-0.06-0.14-0.14-0.14h-9.07c-0.08,0-0.14,0.06-0.14,0.14v8.93h-8.79v-8.93c0-0.08-0.06-0.14-0.14-0.14h-9.07
		c-0.08,0-0.14,0.06-0.14,0.14v8.93h-8.79v-8.93c0-0.08-0.06-0.14-0.14-0.14h-9.07c-0.08,0-0.14,0.06-0.14,0.14v8.93h-8.79v-8.93
		c0-0.08-0.06-0.14-0.14-0.14h-9.07c-0.08,0-0.14,0.06-0.14,0.14v8.93h-8.79v-8.93c0-0.08-0.06-0.14-0.14-0.14h-9.07
		c-0.08,0-0.14,0.06-0.14,0.14v8.93h-8.79v-8.93c0-0.08-0.06-0.14-0.14-0.14h-9.07c-0.08,0-0.14,0.06-0.14,0.14v8.93h-8.79v-8.93
		c0-0.08-0.06-0.14-0.14-0.14h-9.07c-0.08,0-0.14,0.06-0.14,0.14v8.93h-8.79v-8.93c0-0.08-0.06-0.14-0.14-0.14h-9.07
		c-0.08,0-0.14,0.06-0.14,0.14v8.93h-8.79v-8.93c0-0.08-0.06-0.14-0.14-0.14h-9.07c-0.08,0-0.14,0.06-0.14,0.14v8.93h-8.79v-8.93
		c0-0.08-0.06-0.14-0.14-0.14h-9.07c-0.08,0-0.14,0.06-0.14,0.14v8.93h-8.79v-8.93c0-0.08-0.06-0.14-0.14-0.14h-9.07
		c-0.08,0-0.14,0.06-0.14,0.14v8.93h-8.79v-8.93c0-0.08-0.06-0.14-0.14-0.14H342c-0.08,0-0.14,0.06-0.14,0.14v8.93h-12.05
		c-0.08,0-0.14,0.06-0.14,0.14v15.73h-8.93c-0.08,0-0.14,0.06-0.14,0.14v9.07c0,0.08,0.06,0.14,0.14,0.14h8.93v8.79h-8.93
		c-0.08,0-0.14,0.06-0.14,0.14v9.07c0,0.08,0.06,0.14,0.14,0.14h8.93v8.79h-8.93c-0.08,0-0.14,0.06-0.14,0.14v9.07
		c0,0.08,0.06,0.14,0.14,0.14h8.93v8.79h-8.93c-0.08,0-0.14,0.06-0.14,0.14v9.07c0,0.08,0.06,0.14,0.14,0.14h8.93v8.79h-8.93
		c-0.08,0-0.14,0.06-0.14,0.14v9.07c0,0.08,0.06,0.14,0.14,0.14h8.93v15.73C329.67,151.02,329.73,151.09,329.81,151.09z"/>
</g>
<path d="M315.92,164.69h-9.07h-11.74c-0.08,0-0.14,0.06-0.14,0.14v8.93h-9.69v-8.93c0-0.08-0.06-0.14-0.14-0.14h-8.16
	c-0.08,0-0.14,0.06-0.14,0.14v8.93h-9.69v-8.93c0-0.08-0.06-0.14-0.14-0.14h-8.16c-0.08,0-0.14,0.06-0.14,0.14v8.93H249v-8.93
	c0-0.08-0.06-0.14-0.14-0.14h-8.16c-0.08,0-0.14,0.06-0.14,0.14v8.93h-9.69v-8.93c0-0.08-0.06-0.14-0.14-0.14h-8.16
	c-0.08,0-0.14,0.06-0.14,0.14v8.93h-9.69v-8.93c0-0.08-0.06-0.14-0.14-0.14h-8.16c-0.08,0-0.14,0.06-0.14,0.14v8.93h-9.69v-8.93
	c0-0.08-0.06-0.14-0.14-0.14h-8.16c-0.08,0-0.14,0.06-0.14,0.14v8.93h-9.69v-8.93c0-0.08-0.06-0.14-0.14-0.14h-8.16
	c-0.08,0-0.14,0.06-0.14,0.14v8.93h-9.69v-8.93c0-0.08-0.06-0.14-0.14-0.14h-8.16c-0.08,0-0.14,0.06-0.14,0.14v8.93h-9.69v-8.93
	c0-0.08-0.06-0.14-0.14-0.14h-8.16c-0.08,0-0.14,0.06-0.14,0.14v8.93H122v-8.93c0-0.08-0.06-0.14-0.14-0.14h-8.16
	c-0.08,0-0.14,0.06-0.14,0.14v8.93h-9.69v-8.93c0-0.08-0.06-0.14-0.14-0.14h-8.16c-0.08,0-0.14,0.06-0.14,0.14v8.93h-9.69v-8.93
	c0-0.08-0.06-0.14-0.14-0.14h-8.16c-0.08,0-0.14,0.06-0.14,0.14v8.93h-9.69v-8.93c0-0.08-0.06-0.14-0.14-0.14h-8.16
	c-0.08,0-0.14,0.06-0.14,0.14v8.93h-9.69v-8.93c0-0.08-0.06-0.14-0.14-0.14H37.56h-9.07c-0.08,0-0.14,0.06-0.14,0.14v9.07v9.47
	c0,0.08,0.06,0.14,0.14,0.14h8.93v9.69h-8.93c-0.08,0-0.14,0.06-0.14,0.14v8.16c0,0.08,0.06,0.14,0.14,0.14h8.93v9.69h-8.93
	c-0.08,0-0.14,0.06-0.14,0.14v8.16c0,0.08,0.06,0.14,0.14,0.14h8.93v9.69h-8.93c-0.08,0-0.14,0.06-0.14,0.14v8.16
	c0,0.08,0.06,0.14,0.14,0.14h8.93v9.69h-8.93c-0.08,0-0.14,0.06-0.14,0.14v8.16c0,0.08,0.06,0.14,0.14,0.14h8.93v9.69h-8.93
	c-0.08,0-0.14,0.06-0.14,0.14v8.16c0,0.08,0.06,0.14,0.14,0.14h8.93v9.69h-8.93c-0.08,0-0.14,0.06-0.14,0.14v8.16
	c0,0.08,0.06,0.14,0.14,0.14h8.93v9.69h-8.93c-0.08,0-0.14,0.06-0.14,0.14v8.16c0,0.08,0.06,0.14,0.14,0.14h8.93v9.69h-8.93
	c-0.08,0-0.14,0.06-0.14,0.14v9.47v9.07c0,0.08,0.06,0.14,0.14,0.14h9.07h11.74c0.08,0,0.14-0.06,0.14-0.14v-8.93h9.69v8.93
	c0,0.08,0.06,0.14,0.14,0.14h8.16c0.08,0,0.14-0.06,0.14-0.14v-8.93h9.69v8.93c0,0.08,0.06,0.14,0.14,0.14h8.16
	c0.08,0,0.14-0.06,0.14-0.14v-8.93h9.69v8.93c0,0.08,0.06,0.14,0.14,0.14h8.16c0.08,0,0.14-0.06,0.14-0.14v-8.93h9.69v8.93
	c0,0.08,0.06,0.14,0.14,0.14h8.16c0.08,0,0.14-0.06,0.14-0.14v-8.93h9.69v8.93c0,0.08,0.06,0.14,0.14,0.14H140
	c0.08,0,0.14-0.06,0.14-0.14v-8.93h9.69v8.93c0,0.08,0.06,0.14,0.14,0.14h8.16c0.08,0,0.14-0.06,0.14-0.14v-8.93h9.69v8.93
	c0,0.08,0.06,0.14,0.14,0.14h8.16c0.08,0,0.14-0.06,0.14-0.14v-8.93h9.69v8.93c0,0.08,0.06,0.14,0.14,0.14h8.16
	c0.08,0,0.14-0.06,0.14-0.14v-8.93h9.69v8.93c0,0.08,0.06,0.14,0.14,0.14h8.16c0.08,0,0.14-0.06,0.14-0.14v-8.93h9.69v8.93
	c0,0.08,0.06,0.14,0.14,0.14h8.16c0.08,0,0.14-0.06,0.14-0.14v-8.93h9.69v8.93c0,0.08,0.06,0.14,0.14,0.14h8.16
	c0.08,0,0.14-0.06,0.14-0.14v-8.93h9.69v8.93c0,0.08,0.06,0.14,0.14,0.14H267c0.08,0,0.14-0.06,0.14-0.14v-8.93h9.69v8.93
	c0,0.08,0.06,0.14,0.14,0.14h8.16c0.08,0,0.14-0.06,0.14-0.14v-8.93h9.69v8.93c0,0.08,0.06,0.14,0.14,0.14h11.74h9.07
	c0.08,0,0.14-0.06,0.14-0.14v-9.07v-9.47c0-0.08-0.06-0.14-0.14-0.14h-8.93v-9.69h8.93c0.08,0,0.14-0.06,0.14-0.14v-8.16
	c0-0.08-0.06-0.14-0.14-0.14h-8.93v-9.69h8.93c0.08,0,0.14-0.06,0.14-0.14v-8.16c0-0.08-0.06-0.14-0.14-0.14h-8.93v-9.69h8.93
	c0.08,0,0.14-0.06,0.14-0.14v-8.16c0-0.08-0.06-0.14-0.14-0.14h-8.93v-9.69h8.93c0.08,0,0.14-0.06,0.14-0.14v-8.16
	c0-0.08-0.06-0.14-0.14-0.14h-8.93v-9.69h8.93c0.08,0,0.14-0.06,0.14-0.14v-8.16c0-0.08-0.06-0.14-0.14-0.14h-8.93v-9.69h8.93
	c0.08,0,0.14-0.06,0.14-0.14v-8.16c0-0.08-0.06-0.14-0.14-0.14h-8.93v-9.69h8.93c0.08,0,0.14-0.06,0.14-0.14v-8.16
	c0-0.08-0.06-0.14-0.14-0.14h-8.93v-9.69h8.93c0.08,0,0.14-0.06,0.14-0.14v-9.47v-9.07C316.06,164.76,316,164.69,315.92,164.69z
	 M284.17,303.87H60.24V199.84h223.94V303.87z"/>
<path d="M315.92,343.56h-9.07h-11.74c-0.08,0-0.14,0.06-0.14,0.14v8.93h-9.69v-8.93c0-0.08-0.06-0.14-0.14-0.14h-8.16
	c-0.08,0-0.14,0.06-0.14,0.14v8.93h-9.69v-8.93c0-0.08-0.06-0.14-0.14-0.14h-8.16c-0.08,0-0.14,0.06-0.14,0.14v8.93H249v-8.93
	c0-0.08-0.06-0.14-0.14-0.14h-8.16c-0.08,0-0.14,0.06-0.14,0.14v8.93h-9.69v-8.93c0-0.08-0.06-0.14-0.14-0.14h-8.16
	c-0.08,0-0.14,0.06-0.14,0.14v8.93h-9.69v-8.93c0-0.08-0.06-0.14-0.14-0.14h-8.16c-0.08,0-0.14,0.06-0.14,0.14v8.93h-9.69v-8.93
	c0-0.08-0.06-0.14-0.14-0.14h-8.16c-0.08,0-0.14,0.06-0.14,0.14v8.93h-9.69v-8.93c0-0.08-0.06-0.14-0.14-0.14h-8.16
	c-0.08,0-0.14,0.06-0.14,0.14v8.93h-9.69v-8.93c0-0.08-0.06-0.14-0.14-0.14h-8.16c-0.08,0-0.14,0.06-0.14,0.14v8.93h-9.69v-8.93
	c0-0.08-0.06-0.14-0.14-0.14h-8.16c-0.08,0-0.14,0.06-0.14,0.14v8.93H122v-8.93c0-0.08-0.06-0.14-0.14-0.14h-8.16
	c-0.08,0-0.14,0.06-0.14,0.14v8.93h-9.69v-8.93c0-0.08-0.06-0.14-0.14-0.14h-8.16c-0.08,0-0.14,0.06-0.14,0.14v8.93h-9.69v-8.93
	c0-0.08-0.06-0.14-0.14-0.14h-8.16c-0.08,0-0.14,0.06-0.14,0.14v8.93h-9.69v-8.93c0-0.08-0.06-0.14-0.14-0.14h-8.16
	c-0.08,0-0.14,0.06-0.14,0.14v8.93h-9.69v-8.93c0-0.08-0.06-0.14-0.14-0.14H37.56h-9.07c-0.08,0-0.14,0.06-0.14,0.14v9.07v9.47
	c0,0.08,0.06,0.14,0.14,0.14h8.93v9.69h-8.93c-0.08,0-0.14,0.06-0.14,0.14v8.16c0,0.08,0.06,0.14,0.14,0.14h8.93v9.69h-8.93
	c-0.08,0-0.14,0.06-0.14,0.14v8.16c0,0.08,0.06,0.14,0.14,0.14h8.93v9.69h-8.93c-0.08,0-0.14,0.06-0.14,0.14v8.16
	c0,0.08,0.06,0.14,0.14,0.14h8.93v9.69h-8.93c-0.08,0-0.14,0.06-0.14,0.14v8.16c0,0.08,0.06,0.14,0.14,0.14h8.93v9.69h-8.93
	c-0.08,0-0.14,0.06-0.14,0.14v8.16c0,0.08,0.06,0.14,0.14,0.14h8.93v9.69h-8.93c-0.08,0-0.14,0.06-0.14,0.14v8.16
	c0,0.08,0.06,0.14,0.14,0.14h8.93v9.69h-8.93c-0.08,0-0.14,0.06-0.14,0.14v8.16c0,0.08,0.06,0.14,0.14,0.14h8.93v9.69h-8.93
	c-0.08,0-0.14,0.06-0.14,0.14v9.47v9.07c0,0.08,0.06,0.14,0.14,0.14h9.07h11.74c0.08,0,0.14-0.06,0.14-0.14v-8.93h9.69v8.93
	c0,0.08,0.06,0.14,0.14,0.14h8.16c0.08,0,0.14-0.06,0.14-0.14v-8.93h9.69v8.93c0,0.08,0.06,0.14,0.14,0.14h8.16
	c0.08,0,0.14-0.06,0.14-0.14v-8.93h9.69v8.93c0,0.08,0.06,0.14,0.14,0.14h8.16c0.08,0,0.14-0.06,0.14-0.14v-8.93h9.69v8.93
	c0,0.08,0.06,0.14,0.14,0.14h8.16c0.08,0,0.14-0.06,0.14-0.14v-8.93h9.69v8.93c0,0.08,0.06,0.14,0.14,0.14H140
	c0.08,0,0.14-0.06,0.14-0.14v-8.93h9.69v8.93c0,0.08,0.06,0.14,0.14,0.14h8.16c0.08,0,0.14-0.06,0.14-0.14v-8.93h9.69v8.93
	c0,0.08,0.06,0.14,0.14,0.14h8.16c0.08,0,0.14-0.06,0.14-0.14v-8.93h9.69v8.93c0,0.08,0.06,0.14,0.14,0.14h8.16
	c0.08,0,0.14-0.06,0.14-0.14v-8.93h9.69v8.93c0,0.08,0.06,0.14,0.14,0.14h8.16c0.08,0,0.14-0.06,0.14-0.14v-8.93h9.69v8.93
	c0,0.08,0.06,0.14,0.14,0.14h8.16c0.08,0,0.14-0.06,0.14-0.14v-8.93h9.69v8.93c0,0.08,0.06,0.14,0.14,0.14h8.16
	c0.08,0,0.14-0.06,0.14-0.14v-8.93h9.69v8.93c0,0.08,0.06,0.14,0.14,0.14H267c0.08,0,0.14-0.06,0.14-0.14v-8.93h9.69v8.93
	c0,0.08,0.06,0.14,0.14,0.14h8.16c0.08,0,0.14-0.06,0.14-0.14v-8.93h9.69v8.93c0,0.08,0.06,0.14,0.14,0.14h11.74h9.07
	c0.08,0,0.14-0.06,0.14-0.14v-9.07v-9.47c0-0.08-0.06-0.14-0.14-0.14h-8.93v-9.69h8.93c0.08,0,0.14-0.06,0.14-0.14v-8.16
	c0-0.08-0.06-0.14-0.14-0.14h-8.93v-9.69h8.93c0.08,0,0.14-0.06,0.14-0.14v-8.16c0-0.08-0.06-0.14-0.14-0.14h-8.93v-9.69h8.93
	c0.08,0,0.14-0.06,0.14-0.14v-8.16c0-0.08-0.06-0.14-0.14-0.14h-8.93v-9.69h8.93c0.08,0,0.14-0.06,0.14-0.14v-8.16
	c0-0.08-0.06-0.14-0.14-0.14h-8.93v-9.69h8.93c0.08,0,0.14-0.06,0.14-0.14v-8.16c0-0.08-0.06-0.14-0.14-0.14h-8.93v-9.69h8.93
	c0.08,0,0.14-0.06,0.14-0.14v-8.16c0-0.08-0.06-0.14-0.14-0.14h-8.93v-9.69h8.93c0.08,0,0.14-0.06,0.14-0.14v-8.16
	c0-0.08-0.06-0.14-0.14-0.14h-8.93v-9.69h8.93c0.08,0,0.14-0.06,0.14-0.14v-9.47v-9.07C316.06,343.62,316,343.56,315.92,343.56z
	 M85.04,446.31c-8.61,0-15.59-6.98-15.59-15.59s6.98-15.59,15.59-15.59s15.59,6.98,15.59,15.59S93.65,446.31,85.04,446.31z"/>
<path d="M452.27,193.04c0.08,0,0.14-0.06,0.14-0.14v-9.07c0-0.08-0.06-0.14-0.14-0.14h-8.93v-9.78v-9.07c0-0.08-0.06-0.14-0.14-0.14
	h-15.42c-0.08,0-0.14,0.06-0.14,0.14v8.93h-9.69v-8.93c0-0.08-0.06-0.14-0.14-0.14h-8.16c-0.08,0-0.14,0.06-0.14,0.14v8.93h-9.69
	v-8.93c0-0.08-0.06-0.14-0.14-0.14h-8.16c-0.08,0-0.14,0.06-0.14,0.14v8.93h-9.69v-8.93c0-0.08-0.06-0.14-0.14-0.14h-8.16
	c-0.08,0-0.14,0.06-0.14,0.14v8.93h-9.69v-8.93c0-0.08-0.06-0.14-0.14-0.14h-8.16c-0.08,0-0.14,0.06-0.14,0.14v8.93h-9.69v-8.93
	c0-0.08-0.06-0.14-0.14-0.14h-15.42c-0.08,0-0.14,0.06-0.14,0.14v9.07v9.78h-8.93c-0.08,0-0.14,0.06-0.14,0.14v9.07
	c0,0.08,0.06,0.14,0.14,0.14h8.93v8.79h-8.93c-0.08,0-0.14,0.06-0.14,0.14v9.07c0,0.08,0.06,0.14,0.14,0.14h8.93v8.79h-8.93
	c-0.08,0-0.14,0.06-0.14,0.14v9.07c0,0.08,0.06,0.14,0.14,0.14h8.93v8.79h-8.93c-0.08,0-0.14,0.06-0.14,0.14v9.07
	c0,0.08,0.06,0.14,0.14,0.14h8.93v8.79h-8.93c-0.08,0-0.14,0.06-0.14,0.14v9.07c0,0.08,0.06,0.14,0.14,0.14h8.93v8.79h-8.93
	c-0.08,0-0.14,0.06-0.14,0.14v9.07c0,0.08,0.06,0.14,0.14,0.14h8.93v8.79h-8.93c-0.08,0-0.14,0.06-0.14,0.14v9.07
	c0,0.08,0.06,0.14,0.14,0.14h8.93v8.79h-8.93c-0.08,0-0.14,0.06-0.14,0.14v9.07c0,0.08,0.06,0.14,0.14,0.14h8.93v9.78v9.07
	c0,0.08,0.06,0.14,0.14,0.14h15.42c0.08,0,0.14-0.06,0.14-0.14v-8.93h9.69v8.93c0,0.08,0.06,0.14,0.14,0.14h8.16
	c0.08,0,0.14-0.06,0.14-0.14v-8.93h9.69v8.93c0,0.08,0.06,0.14,0.14,0.14h8.16c0.08,0,0.14-0.06,0.14-0.14v-8.93h9.69v8.93
	c0,0.08,0.06,0.14,0.14,0.14h8.16c0.08,0,0.14-0.06,0.14-0.14v-8.93h9.69v8.93c0,0.08,0.06,0.14,0.14,0.14h8.16
	c0.08,0,0.14-0.06,0.14-0.14v-8.93h9.69v8.93c0,0.08,0.06,0.14,0.14,0.14h15.42c0.08,0,0.14-0.06,0.14-0.14v-9.07v-9.78h8.93
	c0.08,0,0.14-0.06,0.14-0.14v-9.07c0-0.08-0.06-0.14-0.14-0.14h-8.93v-8.79h8.93c0.08,0,0.14-0.06,0.14-0.14v-9.07
	c0-0.08-0.06-0.14-0.14-0.14h-8.93v-8.79h8.93c0.08,0,0.14-0.06,0.14-0.14v-9.07c0-0.08-0.06-0.14-0.14-0.14h-8.93v-8.79h8.93
	c0.08,0,0.14-0.06,0.14-0.14v-9.07c0-0.08-0.06-0.14-0.14-0.14h-8.93v-8.79h8.93c0.08,0,0.14-0.06,0.14-0.14v-9.07
	c0-0.08-0.06-0.14-0.14-0.14h-8.93v-8.79h8.93c0.08,0,0.14-0.06,0.14-0.14v-9.07c0-0.08-0.06-0.14-0.14-0.14h-8.93v-8.79h8.93
	c0.08,0,0.14-0.06,0.14-0.14v-9.07c0-0.08-0.06-0.14-0.14-0.14h-8.93v-8.79H452.27z M342.97,320.86c-1.57,0-2.83-1.27-2.83-2.83
	s1.27-2.83,2.83-2.83s2.83,1.27,2.83,2.83S344.53,320.86,342.97,320.86z M342.97,309.84c-1.57,0-2.83-1.27-2.83-2.83
	c0-1.57,1.27-2.83,2.83-2.83s2.83,1.27,2.83,2.83C345.8,308.57,344.53,309.84,342.97,309.84z M342.97,298.81
	c-1.57,0-2.83-1.27-2.83-2.83c0-1.57,1.27-2.83,2.83-2.83s2.83,1.27,2.83,2.83C345.8,297.54,344.53,298.81,342.97,298.81z
	 M342.97,287.78c-1.57,0-2.83-1.27-2.83-2.83c0-1.57,1.27-2.83,2.83-2.83s2.83,1.27,2.83,2.83
	C345.8,286.51,344.53,287.78,342.97,287.78z M342.97,276.75c-1.57,0-2.83-1.27-2.83-2.83c0-1.57,1.27-2.83,2.83-2.83
	s2.83,1.27,2.83,2.83C345.8,275.48,344.53,276.75,342.97,276.75z M342.97,265.72c-1.57,0-2.83-1.27-2.83-2.83
	c0-1.57,1.27-2.83,2.83-2.83s2.83,1.27,2.83,2.83C345.8,264.45,344.53,265.72,342.97,265.72z M342.97,254.69
	c-1.57,0-2.83-1.27-2.83-2.83s1.27-2.83,2.83-2.83s2.83,1.27,2.83,2.83S344.53,254.69,342.97,254.69z M342.97,243.66
	c-1.57,0-2.83-1.27-2.83-2.83s1.27-2.83,2.83-2.83s2.83,1.27,2.83,2.83S344.53,243.66,342.97,243.66z M342.97,232.64
	c-1.57,0-2.83-1.27-2.83-2.83s1.27-2.83,2.83-2.83s2.83,1.27,2.83,2.83S344.53,232.64,342.97,232.64z M342.97,221.61
	c-1.57,0-2.83-1.27-2.83-2.83c0-1.57,1.27-2.83,2.83-2.83s2.83,1.27,2.83,2.83C345.8,220.34,344.53,221.61,342.97,221.61z
	 M342.97,210.58c-1.57,0-2.83-1.27-2.83-2.83c0-1.57,1.27-2.83,2.83-2.83s2.83,1.27,2.83,2.83
	C345.8,209.31,344.53,210.58,342.97,210.58z M342.97,199.55c-1.57,0-2.83-1.27-2.83-2.83c0-1.57,1.27-2.83,2.83-2.83
	s2.83,1.27,2.83,2.83C345.8,198.28,344.53,199.55,342.97,199.55z M342.97,188.52c-1.57,0-2.83-1.27-2.83-2.83
	c0-1.57,1.27-2.83,2.83-2.83s2.83,1.27,2.83,2.83C345.8,187.25,344.53,188.52,342.97,188.52z M351.67,320.86
	c-1.57,0-2.83-1.27-2.83-2.83s1.27-2.83,2.83-2.83s2.83,1.27,2.83,2.83S353.24,320.86,351.67,320.86z M351.67,309.84
	c-1.57,0-2.83-1.27-2.83-2.83c0-1.57,1.27-2.83,2.83-2.83s2.83,1.27,2.83,2.83C354.51,308.57,353.24,309.84,351.67,309.84z
	 M351.67,298.81c-1.57,0-2.83-1.27-2.83-2.83c0-1.57,1.27-2.83,2.83-2.83s2.83,1.27,2.83,2.83
	C354.51,297.54,353.24,298.81,351.67,298.81z M351.67,287.78c-1.57,0-2.83-1.27-2.83-2.83c0-1.57,1.27-2.83,2.83-2.83
	s2.83,1.27,2.83,2.83C354.51,286.51,353.24,287.78,351.67,287.78z M351.67,276.75c-1.57,0-2.83-1.27-2.83-2.83
	c0-1.57,1.27-2.83,2.83-2.83s2.83,1.27,2.83,2.83C354.51,275.48,353.24,276.75,351.67,276.75z M351.67,265.72
	c-1.57,0-2.83-1.27-2.83-2.83c0-1.57,1.27-2.83,2.83-2.83s2.83,1.27,2.83,2.83C354.51,264.45,353.24,265.72,351.67,265.72z
	 M351.67,254.69c-1.57,0-2.83-1.27-2.83-2.83s1.27-2.83,2.83-2.83s2.83,1.27,2.83,2.83S353.24,254.69,351.67,254.69z M351.67,243.66
	c-1.57,0-2.83-1.27-2.83-2.83s1.27-2.83,2.83-2.83s2.83,1.27,2.83,2.83S353.24,243.66,351.67,243.66z M351.67,232.64
	c-1.57,0-2.83-1.27-2.83-2.83s1.27-2.83,2.83-2.83s2.83,1.27,2.83,2.83S353.24,232.64,351.67,232.64z M351.67,221.61
	c-1.57,0-2.83-1.27-2.83-2.83c0-1.57,1.27-2.83,2.83-2.83s2.83,1.27,2.83,2.83C354.51,220.34,353.24,221.61,351.67,221.61z
	 M351.67,210.58c-1.57,0-2.83-1.27-2.83-2.83c0-1.57,1.27-2.83,2.83-2.83s2.83,1.27,2.83,2.83
	C354.51,209.31,353.24,210.58,351.67,210.58z M351.67,199.55c-1.57,0-2.83-1.27-2.83-2.83c0-1.57,1.27-2.83,2.83-2.83
	s2.83,1.27,2.83,2.83C354.51,198.28,353.24,199.55,351.67,199.55z M351.67,188.52c-1.57,0-2.83-1.27-2.83-2.83
	c0-1.57,1.27-2.83,2.83-2.83s2.83,1.27,2.83,2.83C354.51,187.25,353.24,188.52,351.67,188.52z M360.38,320.86
	c-1.57,0-2.83-1.27-2.83-2.83s1.27-2.83,2.83-2.83c1.57,0,2.83,1.27,2.83,2.83S361.95,320.86,360.38,320.86z M360.38,309.84
	c-1.57,0-2.83-1.27-2.83-2.83c0-1.57,1.27-2.83,2.83-2.83c1.57,0,2.83,1.27,2.83,2.83C363.22,308.57,361.95,309.84,360.38,309.84z
	 M360.38,298.81c-1.57,0-2.83-1.27-2.83-2.83c0-1.57,1.27-2.83,2.83-2.83c1.57,0,2.83,1.27,2.83,2.83
	C363.22,297.54,361.95,298.81,360.38,298.81z M360.38,287.78c-1.57,0-2.83-1.27-2.83-2.83c0-1.57,1.27-2.83,2.83-2.83
	c1.57,0,2.83,1.27,2.83,2.83C363.22,286.51,361.95,287.78,360.38,287.78z M360.38,276.75c-1.57,0-2.83-1.27-2.83-2.83
	c0-1.57,1.27-2.83,2.83-2.83c1.57,0,2.83,1.27,2.83,2.83C363.22,275.48,361.95,276.75,360.38,276.75z M360.38,265.72
	c-1.57,0-2.83-1.27-2.83-2.83c0-1.57,1.27-2.83,2.83-2.83c1.57,0,2.83,1.27,2.83,2.83C363.22,264.45,361.95,265.72,360.38,265.72z
	 M360.38,254.69c-1.57,0-2.83-1.27-2.83-2.83s1.27-2.83,2.83-2.83c1.57,0,2.83,1.27,2.83,2.83S361.95,254.69,360.38,254.69z
	 M360.38,243.66c-1.57,0-2.83-1.27-2.83-2.83s1.27-2.83,2.83-2.83c1.57,0,2.83,1.27,2.83,2.83S361.95,243.66,360.38,243.66z
	 M360.38,232.64c-1.57,0-2.83-1.27-2.83-2.83s1.27-2.83,2.83-2.83c1.57,0,2.83,1.27,2.83,2.83S361.95,232.64,360.38,232.64z
	 M360.38,221.61c-1.57,0-2.83-1.27-2.83-2.83c0-1.57,1.27-2.83,2.83-2.83c1.57,0,2.83,1.27,2.83,2.83
	C363.22,220.34,361.95,221.61,360.38,221.61z M360.38,210.58c-1.57,0-2.83-1.27-2.83-2.83c0-1.57,1.27-2.83,2.83-2.83
	c1.57,0,2.83,1.27,2.83,2.83C363.22,209.31,361.95,210.58,360.38,210.58z M360.38,199.55c-1.57,0-2.83-1.27-2.83-2.83
	c0-1.57,1.27-2.83,2.83-2.83c1.57,0,2.83,1.27,2.83,2.83C363.22,198.28,361.95,199.55,360.38,199.55z M360.38,188.52
	c-1.57,0-2.83-1.27-2.83-2.83c0-1.57,1.27-2.83,2.83-2.83c1.57,0,2.83,1.27,2.83,2.83C363.22,187.25,361.95,188.52,360.38,188.52z
	 M369.09,320.86c-1.57,0-2.83-1.27-2.83-2.83s1.27-2.83,2.83-2.83c1.57,0,2.83,1.27,2.83,2.83S370.65,320.86,369.09,320.86z
	 M369.09,309.84c-1.57,0-2.83-1.27-2.83-2.83c0-1.57,1.27-2.83,2.83-2.83c1.57,0,2.83,1.27,2.83,2.83
	C371.92,308.57,370.65,309.84,369.09,309.84z M369.09,298.81c-1.57,0-2.83-1.27-2.83-2.83c0-1.57,1.27-2.83,2.83-2.83
	c1.57,0,2.83,1.27,2.83,2.83C371.92,297.54,370.65,298.81,369.09,298.81z M369.09,287.78c-1.57,0-2.83-1.27-2.83-2.83
	c0-1.57,1.27-2.83,2.83-2.83c1.57,0,2.83,1.27,2.83,2.83C371.92,286.51,370.65,287.78,369.09,287.78z M369.09,276.75
	c-1.57,0-2.83-1.27-2.83-2.83c0-1.57,1.27-2.83,2.83-2.83c1.57,0,2.83,1.27,2.83,2.83C371.92,275.48,370.65,276.75,369.09,276.75z
	 M369.09,265.72c-1.57,0-2.83-1.27-2.83-2.83c0-1.57,1.27-2.83,2.83-2.83c1.57,0,2.83,1.27,2.83,2.83
	C371.92,264.45,370.65,265.72,369.09,265.72z M369.09,254.69c-1.57,0-2.83-1.27-2.83-2.83s1.27-2.83,2.83-2.83
	c1.57,0,2.83,1.27,2.83,2.83S370.65,254.69,369.09,254.69z M369.09,243.66c-1.57,0-2.83-1.27-2.83-2.83s1.27-2.83,2.83-2.83
	c1.57,0,2.83,1.27,2.83,2.83S370.65,243.66,369.09,243.66z M369.09,232.64c-1.57,0-2.83-1.27-2.83-2.83s1.27-2.83,2.83-2.83
	c1.57,0,2.83,1.27,2.83,2.83S370.65,232.64,369.09,232.64z M369.09,221.61c-1.57,0-2.83-1.27-2.83-2.83c0-1.57,1.27-2.83,2.83-2.83
	c1.57,0,2.83,1.27,2.83,2.83C371.92,220.34,370.65,221.61,369.09,221.61z M369.09,210.58c-1.57,0-2.83-1.27-2.83-2.83
	c0-1.57,1.27-2.83,2.83-2.83c1.57,0,2.83,1.27,2.83,2.83C371.92,209.31,370.65,210.58,369.09,210.58z M369.09,199.55
	c-1.57,0-2.83-1.27-2.83-2.83c0-1.57,1.27-2.83,2.83-2.83c1.57,0,2.83,1.27,2.83,2.83C371.92,198.28,370.65,199.55,369.09,199.55z
	 M369.09,188.52c-1.57,0-2.83-1.27-2.83-2.83c0-1.57,1.27-2.83,2.83-2.83c1.57,0,2.83,1.27,2.83,2.83
	C371.92,187.25,370.65,188.52,369.09,188.52z M377.8,320.86c-1.57,0-2.83-1.27-2.83-2.83s1.27-2.83,2.83-2.83
	c1.57,0,2.83,1.27,2.83,2.83S379.36,320.86,377.8,320.86z M377.8,309.84c-1.57,0-2.83-1.27-2.83-2.83c0-1.57,1.27-2.83,2.83-2.83
	c1.57,0,2.83,1.27,2.83,2.83C380.63,308.57,379.36,309.84,377.8,309.84z M377.8,298.81c-1.57,0-2.83-1.27-2.83-2.83
	c0-1.57,1.27-2.83,2.83-2.83c1.57,0,2.83,1.27,2.83,2.83C380.63,297.54,379.36,298.81,377.8,298.81z M377.8,287.78
	c-1.57,0-2.83-1.27-2.83-2.83c0-1.57,1.27-2.83,2.83-2.83c1.57,0,2.83,1.27,2.83,2.83C380.63,286.51,379.36,287.78,377.8,287.78z
	 M377.8,276.75c-1.57,0-2.83-1.27-2.83-2.83c0-1.57,1.27-2.83,2.83-2.83c1.57,0,2.83,1.27,2.83,2.83
	C380.63,275.48,379.36,276.75,377.8,276.75z M377.8,265.72c-1.57,0-2.83-1.27-2.83-2.83c0-1.57,1.27-2.83,2.83-2.83
	c1.57,0,2.83,1.27,2.83,2.83C380.63,264.45,379.36,265.72,377.8,265.72z M377.8,254.69c-1.57,0-2.83-1.27-2.83-2.83
	s1.27-2.83,2.83-2.83c1.57,0,2.83,1.27,2.83,2.83S379.36,254.69,377.8,254.69z M377.8,243.66c-1.57,0-2.83-1.27-2.83-2.83
	s1.27-2.83,2.83-2.83c1.57,0,2.83,1.27,2.83,2.83S379.36,243.66,377.8,243.66z M377.8,232.64c-1.57,0-2.83-1.27-2.83-2.83
	s1.27-2.83,2.83-2.83c1.57,0,2.83,1.27,2.83,2.83S379.36,232.64,377.8,232.64z M377.8,221.61c-1.57,0-2.83-1.27-2.83-2.83
	c0-1.57,1.27-2.83,2.83-2.83c1.57,0,2.83,1.27,2.83,2.83C380.63,220.34,379.36,221.61,377.8,221.61z M377.8,210.58
	c-1.57,0-2.83-1.27-2.83-2.83c0-1.57,1.27-2.83,2.83-2.83c1.57,0,2.83,1.27,2.83,2.83C380.63,209.31,379.36,210.58,377.8,210.58z
	 M377.8,199.55c-1.57,0-2.83-1.27-2.83-2.83c0-1.57,1.27-2.83,2.83-2.83c1.57,0,2.83,1.27,2.83,2.83
	C380.63,198.28,379.36,199.55,377.8,199.55z M377.8,188.52c-1.57,0-2.83-1.27-2.83-2.83c0-1.57,1.27-2.83,2.83-2.83
	c1.57,0,2.83,1.27,2.83,2.83C380.63,187.25,379.36,188.52,377.8,188.52z M386.5,320.86c-1.57,0-2.83-1.27-2.83-2.83
	s1.27-2.83,2.83-2.83c1.57,0,2.83,1.27,2.83,2.83S388.07,320.86,386.5,320.86z M386.5,309.84c-1.57,0-2.83-1.27-2.83-2.83
	c0-1.57,1.27-2.83,2.83-2.83c1.57,0,2.83,1.27,2.83,2.83C389.34,308.57,388.07,309.84,386.5,309.84z M386.5,298.81
	c-1.57,0-2.83-1.27-2.83-2.83c0-1.57,1.27-2.83,2.83-2.83c1.57,0,2.83,1.27,2.83,2.83C389.34,297.54,388.07,298.81,386.5,298.81z
	 M386.5,287.78c-1.57,0-2.83-1.27-2.83-2.83c0-1.57,1.27-2.83,2.83-2.83c1.57,0,2.83,1.27,2.83,2.83
	C389.34,286.51,388.07,287.78,386.5,287.78z M386.5,276.75c-1.57,0-2.83-1.27-2.83-2.83c0-1.57,1.27-2.83,2.83-2.83
	c1.57,0,2.83,1.27,2.83,2.83C389.34,275.48,388.07,276.75,386.5,276.75z M386.5,265.72c-1.57,0-2.83-1.27-2.83-2.83
	c0-1.57,1.27-2.83,2.83-2.83c1.57,0,2.83,1.27,2.83,2.83C389.34,264.45,388.07,265.72,386.5,265.72z M386.5,254.69
	c-1.57,0-2.83-1.27-2.83-2.83s1.27-2.83,2.83-2.83c1.57,0,2.83,1.27,2.83,2.83S388.07,254.69,386.5,254.69z M386.5,243.66
	c-1.57,0-2.83-1.27-2.83-2.83s1.27-2.83,2.83-2.83c1.57,0,2.83,1.27,2.83,2.83S388.07,243.66,386.5,243.66z M386.5,232.64
	c-1.57,0-2.83-1.27-2.83-2.83s1.27-2.83,2.83-2.83c1.57,0,2.83,1.27,2.83,2.83S388.07,232.64,386.5,232.64z M386.5,221.61
	c-1.57,0-2.83-1.27-2.83-2.83c0-1.57,1.27-2.83,2.83-2.83c1.57,0,2.83,1.27,2.83,2.83C389.34,220.34,388.07,221.61,386.5,221.61z
	 M386.5,210.58c-1.57,0-2.83-1.27-2.83-2.83c0-1.57,1.27-2.83,2.83-2.83c1.57,0,2.83,1.27,2.83,2.83
	C389.34,209.31,388.07,210.58,386.5,210.58z M386.5,199.55c-1.57,0-2.83-1.27-2.83-2.83c0-1.57,1.27-2.83,2.83-2.83
	c1.57,0,2.83,1.27,2.83,2.83C389.34,198.28,388.07,199.55,386.5,199.55z M386.5,188.52c-1.57,0-2.83-1.27-2.83-2.83
	c0-1.57,1.27-2.83,2.83-2.83c1.57,0,2.83,1.27,2.83,2.83C389.34,187.25,388.07,188.52,386.5,188.52z M395.21,320.86
	c-1.57,0-2.83-1.27-2.83-2.83s1.27-2.83,2.83-2.83c1.57,0,2.83,1.27,2.83,2.83S396.78,320.86,395.21,320.86z M395.21,309.84
	c-1.57,0-2.83-1.27-2.83-2.83c0-1.57,1.27-2.83,2.83-2.83c1.57,0,2.83,1.27,2.83,2.83C398.05,308.57,396.78,309.84,395.21,309.84z
	 M395.21,298.81c-1.57,0-2.83-1.27-2.83-2.83c0-1.57,1.27-2.83,2.83-2.83c1.57,0,2.83,1.27,2.83,2.83
	C398.05,297.54,396.78,298.81,395.21,298.81z M395.21,287.78c-1.57,0-2.83-1.27-2.83-2.83c0-1.57,1.27-2.83,2.83-2.83
	c1.57,0,2.83,1.27,2.83,2.83C398.05,286.51,396.78,287.78,395.21,287.78z M395.21,276.75c-1.57,0-2.83-1.27-2.83-2.83
	c0-1.57,1.27-2.83,2.83-2.83c1.57,0,2.83,1.27,2.83,2.83C398.05,275.48,396.78,276.75,395.21,276.75z M395.21,265.72
	c-1.57,0-2.83-1.27-2.83-2.83c0-1.57,1.27-2.83,2.83-2.83c1.57,0,2.83,1.27,2.83,2.83C398.05,264.45,396.78,265.72,395.21,265.72z
	 M395.21,254.69c-1.57,0-2.83-1.27-2.83-2.83s1.27-2.83,2.83-2.83c1.57,0,2.83,1.27,2.83,2.83S396.78,254.69,395.21,254.69z
	 M395.21,243.66c-1.57,0-2.83-1.27-2.83-2.83s1.27-2.83,2.83-2.83c1.57,0,2.83,1.27,2.83,2.83S396.78,243.66,395.21,243.66z
	 M395.21,232.64c-1.57,0-2.83-1.27-2.83-2.83s1.27-2.83,2.83-2.83c1.57,0,2.83,1.27,2.83,2.83S396.78,232.64,395.21,232.64z
	 M395.21,221.61c-1.57,0-2.83-1.27-2.83-2.83c0-1.57,1.27-2.83,2.83-2.83c1.57,0,2.83,1.27,2.83,2.83
	C398.05,220.34,396.78,221.61,395.21,221.61z M395.21,210.58c-1.57,0-2.83-1.27-2.83-2.83c0-1.57,1.27-2.83,2.83-2.83
	c1.57,0,2.83,1.27,2.83,2.83C398.05,209.31,396.78,210.58,395.21,210.58z M395.21,199.55c-1.57,0-2.83-1.27-2.83-2.83
	c0-1.57,1.27-2.83,2.83-2.83c1.57,0,2.83,1.27,2.83,2.83C398.05,198.28,396.78,199.55,395.21,199.55z M395.21,188.52
	c-1.57,0-2.83-1.27-2.83-2.83c0-1.57,1.27-2.83,2.83-2.83c1.57,0,2.83,1.27,2.83,2.83C398.05,187.25,396.78,188.52,395.21,188.52z
	 M403.92,320.86c-1.57,0-2.83-1.27-2.83-2.83s1.27-2.83,2.83-2.83c1.57,0,2.83,1.27,2.83,2.83S405.48,320.86,403.92,320.86z
	 M403.92,309.84c-1.57,0-2.83-1.27-2.83-2.83c0-1.57,1.27-2.83,2.83-2.83c1.57,0,2.83,1.27,2.83,2.83
	C406.75,308.57,405.48,309.84,403.92,309.84z M403.92,298.81c-1.57,0-2.83-1.27-2.83-2.83c0-1.57,1.27-2.83,2.83-2.83
	c1.57,0,2.83,1.27,2.83,2.83C406.75,297.54,405.48,298.81,403.92,298.81z M403.92,287.78c-1.57,0-2.83-1.27-2.83-2.83
	c0-1.57,1.27-2.83,2.83-2.83c1.57,0,2.83,1.27,2.83,2.83C406.75,286.51,405.48,287.78,403.92,287.78z M403.92,276.75
	c-1.57,0-2.83-1.27-2.83-2.83c0-1.57,1.27-2.83,2.83-2.83c1.57,0,2.83,1.27,2.83,2.83C406.75,275.48,405.48,276.75,403.92,276.75z
	 M403.92,265.72c-1.57,0-2.83-1.27-2.83-2.83c0-1.57,1.27-2.83,2.83-2.83c1.57,0,2.83,1.27,2.83,2.83
	C406.75,264.45,405.48,265.72,403.92,265.72z M403.92,254.69c-1.57,0-2.83-1.27-2.83-2.83s1.27-2.83,2.83-2.83
	c1.57,0,2.83,1.27,2.83,2.83S405.48,254.69,403.92,254.69z M403.92,243.66c-1.57,0-2.83-1.27-2.83-2.83s1.27-2.83,2.83-2.83
	c1.57,0,2.83,1.27,2.83,2.83S405.48,243.66,403.92,243.66z M403.92,232.64c-1.57,0-2.83-1.27-2.83-2.83s1.27-2.83,2.83-2.83
	c1.57,0,2.83,1.27,2.83,2.83S405.48,232.64,403.92,232.64z M403.92,221.61c-1.57,0-2.83-1.27-2.83-2.83c0-1.57,1.27-2.83,2.83-2.83
	c1.57,0,2.83,1.27,2.83,2.83C406.75,220.34,405.48,221.61,403.92,221.61z M403.92,210.58c-1.57,0-2.83-1.27-2.83-2.83
	c0-1.57,1.27-2.83,2.83-2.83c1.57,0,2.83,1.27,2.83,2.83C406.75,209.31,405.48,210.58,403.92,210.58z M403.92,199.55
	c-1.57,0-2.83-1.27-2.83-2.83c0-1.57,1.27-2.83,2.83-2.83c1.57,0,2.83,1.27,2.83,2.83C406.75,198.28,405.48,199.55,403.92,199.55z
	 M403.92,188.52c-1.57,0-2.83-1.27-2.83-2.83c0-1.57,1.27-2.83,2.83-2.83c1.57,0,2.83,1.27,2.83,2.83
	C406.75,187.25,405.48,188.52,403.92,188.52z M412.63,320.86c-1.57,0-2.83-1.27-2.83-2.83s1.27-2.83,2.83-2.83s2.83,1.27,2.83,2.83
	S414.19,320.86,412.63,320.86z M412.63,309.84c-1.57,0-2.83-1.27-2.83-2.83c0-1.57,1.27-2.83,2.83-2.83s2.83,1.27,2.83,2.83
	C415.46,308.57,414.19,309.84,412.63,309.84z M412.63,298.81c-1.57,0-2.83-1.27-2.83-2.83c0-1.57,1.27-2.83,2.83-2.83
	s2.83,1.27,2.83,2.83C415.46,297.54,414.19,298.81,412.63,298.81z M412.63,287.78c-1.57,0-2.83-1.27-2.83-2.83
	c0-1.57,1.27-2.83,2.83-2.83s2.83,1.27,2.83,2.83C415.46,286.51,414.19,287.78,412.63,287.78z M412.63,276.75
	c-1.57,0-2.83-1.27-2.83-2.83c0-1.57,1.27-2.83,2.83-2.83s2.83,1.27,2.83,2.83C415.46,275.48,414.19,276.75,412.63,276.75z
	 M412.63,265.72c-1.57,0-2.83-1.27-2.83-2.83c0-1.57,1.27-2.83,2.83-2.83s2.83,1.27,2.83,2.83
	C415.46,264.45,414.19,265.72,412.63,265.72z M412.63,254.69c-1.57,0-2.83-1.27-2.83-2.83s1.27-2.83,2.83-2.83s2.83,1.27,2.83,2.83
	S414.19,254.69,412.63,254.69z M412.63,243.66c-1.57,0-2.83-1.27-2.83-2.83s1.27-2.83,2.83-2.83s2.83,1.27,2.83,2.83
	S414.19,243.66,412.63,243.66z M412.63,232.64c-1.57,0-2.83-1.27-2.83-2.83s1.27-2.83,2.83-2.83s2.83,1.27,2.83,2.83
	S414.19,232.64,412.63,232.64z M412.63,221.61c-1.57,0-2.83-1.27-2.83-2.83c0-1.57,1.27-2.83,2.83-2.83s2.83,1.27,2.83,2.83
	C415.46,220.34,414.19,221.61,412.63,221.61z M412.63,210.58c-1.57,0-2.83-1.27-2.83-2.83c0-1.57,1.27-2.83,2.83-2.83
	s2.83,1.27,2.83,2.83C415.46,209.31,414.19,210.58,412.63,210.58z M412.63,199.55c-1.57,0-2.83-1.27-2.83-2.83
	c0-1.57,1.27-2.83,2.83-2.83s2.83,1.27,2.83,2.83C415.46,198.28,414.19,199.55,412.63,199.55z M412.63,188.52
	c-1.57,0-2.83-1.27-2.83-2.83c0-1.57,1.27-2.83,2.83-2.83s2.83,1.27,2.83,2.83C415.46,187.25,414.19,188.52,412.63,188.52z
	 M421.33,320.86c-1.57,0-2.83-1.27-2.83-2.83s1.27-2.83,2.83-2.83s2.83,1.27,2.83,2.83S422.9,320.86,421.33,320.86z M421.33,309.84
	c-1.57,0-2.83-1.27-2.83-2.83c0-1.57,1.27-2.83,2.83-2.83s2.83,1.27,2.83,2.83C424.17,308.57,422.9,309.84,421.33,309.84z
	 M421.33,298.81c-1.57,0-2.83-1.27-2.83-2.83c0-1.57,1.27-2.83,2.83-2.83s2.83,1.27,2.83,2.83
	C424.17,297.54,422.9,298.81,421.33,298.81z M421.33,287.78c-1.57,0-2.83-1.27-2.83-2.83c0-1.57,1.27-2.83,2.83-2.83
	s2.83,1.27,2.83,2.83C424.17,286.51,422.9,287.78,421.33,287.78z M421.33,276.75c-1.57,0-2.83-1.27-2.83-2.83
	c0-1.57,1.27-2.83,2.83-2.83s2.83,1.27,2.83,2.83C424.17,275.48,422.9,276.75,421.33,276.75z M421.33,265.72
	c-1.57,0-2.83-1.27-2.83-2.83c0-1.57,1.27-2.83,2.83-2.83s2.83,1.27,2.83,2.83C424.17,264.45,422.9,265.72,421.33,265.72z
	 M421.33,254.69c-1.57,0-2.83-1.27-2.83-2.83s1.27-2.83,2.83-2.83s2.83,1.27,2.83,2.83S422.9,254.69,421.33,254.69z M421.33,243.66
	c-1.57,0-2.83-1.27-2.83-2.83s1.27-2.83,2.83-2.83s2.83,1.27,2.83,2.83S422.9,243.66,421.33,243.66z M421.33,232.64
	c-1.57,0-2.83-1.27-2.83-2.83s1.27-2.83,2.83-2.83s2.83,1.27,2.83,2.83S422.9,232.64,421.33,232.64z M421.33,221.61
	c-1.57,0-2.83-1.27-2.83-2.83c0-1.57,1.27-2.83,2.83-2.83s2.83,1.27,2.83,2.83C424.17,220.34,422.9,221.61,421.33,221.61z
	 M421.33,210.58c-1.57,0-2.83-1.27-2.83-2.83c0-1.57,1.27-2.83,2.83-2.83s2.83,1.27,2.83,2.83
	C424.17,209.31,422.9,210.58,421.33,210.58z M421.33,199.55c-1.57,0-2.83-1.27-2.83-2.83c0-1.57,1.27-2.83,2.83-2.83
	s2.83,1.27,2.83,2.83C424.17,198.28,422.9,199.55,421.33,199.55z M421.33,188.52c-1.57,0-2.83-1.27-2.83-2.83
	c0-1.57,1.27-2.83,2.83-2.83s2.83,1.27,2.83,2.83C424.17,187.25,422.9,188.52,421.33,188.52z M430.04,320.86
	c-1.57,0-2.83-1.27-2.83-2.83s1.27-2.83,2.83-2.83s2.83,1.27,2.83,2.83S431.61,320.86,430.04,320.86z M430.04,309.84
	c-1.57,0-2.83-1.27-2.83-2.83c0-1.57,1.27-2.83,2.83-2.83s2.83,1.27,2.83,2.83C432.88,308.57,431.61,309.84,430.04,309.84z
	 M430.04,298.81c-1.57,0-2.83-1.27-2.83-2.83c0-1.57,1.27-2.83,2.83-2.83s2.83,1.27,2.83,2.83
	C432.88,297.54,431.61,298.81,430.04,298.81z M430.04,287.78c-1.57,0-2.83-1.27-2.83-2.83c0-1.57,1.27-2.83,2.83-2.83
	s2.83,1.27,2.83,2.83C432.88,286.51,431.61,287.78,430.04,287.78z M430.04,276.75c-1.57,0-2.83-1.27-2.83-2.83
	c0-1.57,1.27-2.83,2.83-2.83s2.83,1.27,2.83,2.83C432.88,275.48,431.61,276.75,430.04,276.75z M430.04,265.72
	c-1.57,0-2.83-1.27-2.83-2.83c0-1.57,1.27-2.83,2.83-2.83s2.83,1.27,2.83,2.83C432.88,264.45,431.61,265.72,430.04,265.72z
	 M430.04,254.69c-1.57,0-2.83-1.27-2.83-2.83s1.27-2.83,2.83-2.83s2.83,1.27,2.83,2.83S431.61,254.69,430.04,254.69z M430.04,243.66
	c-1.57,0-2.83-1.27-2.83-2.83s1.27-2.83,2.83-2.83s2.83,1.27,2.83,2.83S431.61,243.66,430.04,243.66z M430.04,232.64
	c-1.57,0-2.83-1.27-2.83-2.83s1.27-2.83,2.83-2.83s2.83,1.27,2.83,2.83S431.61,232.64,430.04,232.64z M430.04,221.61
	c-1.57,0-2.83-1.27-2.83-2.83c0-1.57,1.27-2.83,2.83-2.83s2.83,1.27,2.83,2.83C432.88,220.34,431.61,221.61,430.04,221.61z
	 M430.04,210.58c-1.57,0-2.83-1.27-2.83-2.83c0-1.57,1.27-2.83,2.83-2.83s2.83,1.27,2.83,2.83
	C432.88,209.31,431.61,210.58,430.04,210.58z M430.04,199.55c-1.57,0-2.83-1.27-2.83-2.83c0-1.57,1.27-2.83,2.83-2.83
	s2.83,1.27,2.83,2.83C432.88,198.28,431.61,199.55,430.04,199.55z M430.04,188.52c-1.57,0-2.83-1.27-2.83-2.83
	c0-1.57,1.27-2.83,2.83-2.83s2.83,1.27,2.83,2.83C432.88,187.25,431.61,188.52,430.04,188.52z"/>
<path d="M452.27,371.91c0.08,0,0.14-0.06,0.14-0.14v-9.07c0-0.08-0.06-0.14-0.14-0.14h-8.93v-9.78v-9.07c0-0.08-0.06-0.14-0.14-0.14
	h-15.42c-0.08,0-0.14,0.06-0.14,0.14v8.93h-9.69v-8.93c0-0.08-0.06-0.14-0.14-0.14h-8.16c-0.08,0-0.14,0.06-0.14,0.14v8.93h-9.69
	v-8.93c0-0.08-0.06-0.14-0.14-0.14h-8.16c-0.08,0-0.14,0.06-0.14,0.14v8.93h-9.69v-8.93c0-0.08-0.06-0.14-0.14-0.14h-8.16
	c-0.08,0-0.14,0.06-0.14,0.14v8.93h-9.69v-8.93c0-0.08-0.06-0.14-0.14-0.14h-8.16c-0.08,0-0.14,0.06-0.14,0.14v8.93h-9.69v-8.93
	c0-0.08-0.06-0.14-0.14-0.14h-15.42c-0.08,0-0.14,0.06-0.14,0.14v9.07v9.78h-8.93c-0.08,0-0.14,0.06-0.14,0.14v9.07
	c0,0.08,0.06,0.14,0.14,0.14h8.93v8.79h-8.93c-0.08,0-0.14,0.06-0.14,0.14v9.07c0,0.08,0.06,0.14,0.14,0.14h8.93v8.79h-8.93
	c-0.08,0-0.14,0.06-0.14,0.14v9.07c0,0.08,0.06,0.14,0.14,0.14h8.93v8.79h-8.93c-0.08,0-0.14,0.06-0.14,0.14v9.07
	c0,0.08,0.06,0.14,0.14,0.14h8.93v8.79h-8.93c-0.08,0-0.14,0.06-0.14,0.14v9.07c0,0.08,0.06,0.14,0.14,0.14h8.93v8.79h-8.93
	c-0.08,0-0.14,0.06-0.14,0.14v9.07c0,0.08,0.06,0.14,0.14,0.14h8.93v8.79h-8.93c-0.08,0-0.14,0.06-0.14,0.14v9.07
	c0,0.08,0.06,0.14,0.14,0.14h8.93v8.79h-8.93c-0.08,0-0.14,0.06-0.14,0.14v9.07c0,0.08,0.06,0.14,0.14,0.14h8.93v9.78v9.07
	c0,0.08,0.06,0.14,0.14,0.14h15.42c0.08,0,0.14-0.06,0.14-0.14v-8.93h9.69v8.93c0,0.08,0.06,0.14,0.14,0.14h8.16
	c0.08,0,0.14-0.06,0.14-0.14v-8.93h9.69v8.93c0,0.08,0.06,0.14,0.14,0.14h8.16c0.08,0,0.14-0.06,0.14-0.14v-8.93h9.69v8.93
	c0,0.08,0.06,0.14,0.14,0.14h8.16c0.08,0,0.14-0.06,0.14-0.14v-8.93h9.69v8.93c0,0.08,0.06,0.14,0.14,0.14h8.16
	c0.08,0,0.14-0.06,0.14-0.14v-8.93h9.69v8.93c0,0.08,0.06,0.14,0.14,0.14h15.42c0.08,0,0.14-0.06,0.14-0.14v-9.07v-9.78h8.93
	c0.08,0,0.14-0.06,0.14-0.14v-9.07c0-0.08-0.06-0.14-0.14-0.14h-8.93v-8.79h8.93c0.08,0,0.14-0.06,0.14-0.14v-9.07
	c0-0.08-0.06-0.14-0.14-0.14h-8.93v-8.79h8.93c0.08,0,0.14-0.06,0.14-0.14v-9.07c0-0.08-0.06-0.14-0.14-0.14h-8.93v-8.79h8.93
	c0.08,0,0.14-0.06,0.14-0.14v-9.07c0-0.08-0.06-0.14-0.14-0.14h-8.93v-8.79h8.93c0.08,0,0.14-0.06,0.14-0.14v-9.07
	c0-0.08-0.06-0.14-0.14-0.14h-8.93v-8.79h8.93c0.08,0,0.14-0.06,0.14-0.14v-9.07c0-0.08-0.06-0.14-0.14-0.14h-8.93v-8.79h8.93
	c0.08,0,0.14-0.06,0.14-0.14v-9.07c0-0.08-0.06-0.14-0.14-0.14h-8.93v-8.79H452.27z M342.97,499.73c-1.57,0-2.83-1.27-2.83-2.83
	s1.27-2.83,2.83-2.83s2.83,1.27,2.83,2.83S344.53,499.73,342.97,499.73z M342.97,488.7c-1.57,0-2.83-1.27-2.83-2.83
	s1.27-2.83,2.83-2.83s2.83,1.27,2.83,2.83S344.53,488.7,342.97,488.7z M342.97,477.67c-1.57,0-2.83-1.27-2.83-2.83
	c0-1.57,1.27-2.83,2.83-2.83s2.83,1.27,2.83,2.83C345.8,476.4,344.53,477.67,342.97,477.67z M342.97,466.65
	c-1.57,0-2.83-1.27-2.83-2.83c0-1.57,1.27-2.83,2.83-2.83s2.83,1.27,2.83,2.83C345.8,465.38,344.53,466.65,342.97,466.65z
	 M342.97,455.62c-1.57,0-2.83-1.27-2.83-2.83c0-1.57,1.27-2.83,2.83-2.83s2.83,1.27,2.83,2.83
	C345.8,454.35,344.53,455.62,342.97,455.62z M342.97,444.59c-1.57,0-2.83-1.27-2.83-2.83c0-1.57,1.27-2.83,2.83-2.83
	s2.83,1.27,2.83,2.83C345.8,443.32,344.53,444.59,342.97,444.59z M342.97,433.56c-1.57,0-2.83-1.27-2.83-2.83
	c0-1.57,1.27-2.83,2.83-2.83s2.83,1.27,2.83,2.83C345.8,432.29,344.53,433.56,342.97,433.56z M342.97,422.53
	c-1.57,0-2.83-1.27-2.83-2.83s1.27-2.83,2.83-2.83s2.83,1.27,2.83,2.83S344.53,422.53,342.97,422.53z M342.97,411.5
	c-1.57,0-2.83-1.27-2.83-2.83s1.27-2.83,2.83-2.83s2.83,1.27,2.83,2.83S344.53,411.5,342.97,411.5z M342.97,400.47
	c-1.57,0-2.83-1.27-2.83-2.83s1.27-2.83,2.83-2.83s2.83,1.27,2.83,2.83S344.53,400.47,342.97,400.47z M342.97,389.44
	c-1.57,0-2.83-1.27-2.83-2.83c0-1.57,1.27-2.83,2.83-2.83s2.83,1.27,2.83,2.83C345.8,388.18,344.53,389.44,342.97,389.44z
	 M342.97,378.42c-1.57,0-2.83-1.27-2.83-2.83c0-1.57,1.27-2.83,2.83-2.83s2.83,1.27,2.83,2.83
	C345.8,377.15,344.53,378.42,342.97,378.42z M342.97,367.39c-1.57,0-2.83-1.27-2.83-2.83c0-1.57,1.27-2.83,2.83-2.83
	s2.83,1.27,2.83,2.83C345.8,366.12,344.53,367.39,342.97,367.39z M351.67,499.73c-1.57,0-2.83-1.27-2.83-2.83s1.27-2.83,2.83-2.83
	s2.83,1.27,2.83,2.83S353.24,499.73,351.67,499.73z M351.67,488.7c-1.57,0-2.83-1.27-2.83-2.83s1.27-2.83,2.83-2.83
	s2.83,1.27,2.83,2.83S353.24,488.7,351.67,488.7z M351.67,477.67c-1.57,0-2.83-1.27-2.83-2.83c0-1.57,1.27-2.83,2.83-2.83
	s2.83,1.27,2.83,2.83C354.51,476.4,353.24,477.67,351.67,477.67z M351.67,466.65c-1.57,0-2.83-1.27-2.83-2.83
	c0-1.57,1.27-2.83,2.83-2.83s2.83,1.27,2.83,2.83C354.51,465.38,353.24,466.65,351.67,466.65z M351.67,455.62
	c-1.57,0-2.83-1.27-2.83-2.83c0-1.57,1.27-2.83,2.83-2.83s2.83,1.27,2.83,2.83C354.51,454.35,353.24,455.62,351.67,455.62z
	 M351.67,444.59c-1.57,0-2.83-1.27-2.83-2.83c0-1.57,1.27-2.83,2.83-2.83s2.83,1.27,2.83,2.83
	C354.51,443.32,353.24,444.59,351.67,444.59z M351.67,433.56c-1.57,0-2.83-1.27-2.83-2.83c0-1.57,1.27-2.83,2.83-2.83
	s2.83,1.27,2.83,2.83C354.51,432.29,353.24,433.56,351.67,433.56z M351.67,422.53c-1.57,0-2.83-1.27-2.83-2.83s1.27-2.83,2.83-2.83
	s2.83,1.27,2.83,2.83S353.24,422.53,351.67,422.53z M351.67,411.5c-1.57,0-2.83-1.27-2.83-2.83s1.27-2.83,2.83-2.83
	s2.83,1.27,2.83,2.83S353.24,411.5,351.67,411.5z M351.67,400.47c-1.57,0-2.83-1.27-2.83-2.83s1.27-2.83,2.83-2.83
	s2.83,1.27,2.83,2.83S353.24,400.47,351.67,400.47z M351.67,389.44c-1.57,0-2.83-1.27-2.83-2.83c0-1.57,1.27-2.83,2.83-2.83
	s2.83,1.27,2.83,2.83C354.51,388.18,353.24,389.44,351.67,389.44z M351.67,378.42c-1.57,0-2.83-1.27-2.83-2.83
	c0-1.57,1.27-2.83,2.83-2.83s2.83,1.27,2.83,2.83C354.51,377.15,353.24,378.42,351.67,378.42z M351.67,367.39
	c-1.57,0-2.83-1.27-2.83-2.83c0-1.57,1.27-2.83,2.83-2.83s2.83,1.27,2.83,2.83C354.51,366.12,353.24,367.39,351.67,367.39z
	 M360.38,499.73c-1.57,0-2.83-1.27-2.83-2.83s1.27-2.83,2.83-2.83c1.57,0,2.83,1.27,2.83,2.83S361.95,499.73,360.38,499.73z
	 M360.38,488.7c-1.57,0-2.83-1.27-2.83-2.83s1.27-2.83,2.83-2.83c1.57,0,2.83,1.27,2.83,2.83S361.95,488.7,360.38,488.7z
	 M360.38,477.67c-1.57,0-2.83-1.27-2.83-2.83c0-1.57,1.27-2.83,2.83-2.83c1.57,0,2.83,1.27,2.83,2.83
	C363.22,476.4,361.95,477.67,360.38,477.67z M360.38,466.65c-1.57,0-2.83-1.27-2.83-2.83c0-1.57,1.27-2.83,2.83-2.83
	c1.57,0,2.83,1.27,2.83,2.83C363.22,465.38,361.95,466.65,360.38,466.65z M360.38,455.62c-1.57,0-2.83-1.27-2.83-2.83
	c0-1.57,1.27-2.83,2.83-2.83c1.57,0,2.83,1.27,2.83,2.83C363.22,454.35,361.95,455.62,360.38,455.62z M360.38,444.59
	c-1.57,0-2.83-1.27-2.83-2.83c0-1.57,1.27-2.83,2.83-2.83c1.57,0,2.83,1.27,2.83,2.83C363.22,443.32,361.95,444.59,360.38,444.59z
	 M360.38,433.56c-1.57,0-2.83-1.27-2.83-2.83c0-1.57,1.27-2.83,2.83-2.83c1.57,0,2.83,1.27,2.83,2.83
	C363.22,432.29,361.95,433.56,360.38,433.56z M360.38,422.53c-1.57,0-2.83-1.27-2.83-2.83s1.27-2.83,2.83-2.83
	c1.57,0,2.83,1.27,2.83,2.83S361.95,422.53,360.38,422.53z M360.38,411.5c-1.57,0-2.83-1.27-2.83-2.83s1.27-2.83,2.83-2.83
	c1.57,0,2.83,1.27,2.83,2.83S361.95,411.5,360.38,411.5z M360.38,400.47c-1.57,0-2.83-1.27-2.83-2.83s1.27-2.83,2.83-2.83
	c1.57,0,2.83,1.27,2.83,2.83S361.95,400.47,360.38,400.47z M360.38,389.44c-1.57,0-2.83-1.27-2.83-2.83c0-1.57,1.27-2.83,2.83-2.83
	c1.57,0,2.83,1.27,2.83,2.83C363.22,388.18,361.95,389.44,360.38,389.44z M360.38,378.42c-1.57,0-2.83-1.27-2.83-2.83
	c0-1.57,1.27-2.83,2.83-2.83c1.57,0,2.83,1.27,2.83,2.83C363.22,377.15,361.95,378.42,360.38,378.42z M360.38,367.39
	c-1.57,0-2.83-1.27-2.83-2.83c0-1.57,1.27-2.83,2.83-2.83c1.57,0,2.83,1.27,2.83,2.83C363.22,366.12,361.95,367.39,360.38,367.39z
	 M369.09,499.73c-1.57,0-2.83-1.27-2.83-2.83s1.27-2.83,2.83-2.83c1.57,0,2.83,1.27,2.83,2.83S370.65,499.73,369.09,499.73z
	 M369.09,488.7c-1.57,0-2.83-1.27-2.83-2.83s1.27-2.83,2.83-2.83c1.57,0,2.83,1.27,2.83,2.83S370.65,488.7,369.09,488.7z
	 M369.09,477.67c-1.57,0-2.83-1.27-2.83-2.83c0-1.57,1.27-2.83,2.83-2.83c1.57,0,2.83,1.27,2.83,2.83
	C371.92,476.4,370.65,477.67,369.09,477.67z M369.09,466.65c-1.57,0-2.83-1.27-2.83-2.83c0-1.57,1.27-2.83,2.83-2.83
	c1.57,0,2.83,1.27,2.83,2.83C371.92,465.38,370.65,466.65,369.09,466.65z M369.09,455.62c-1.57,0-2.83-1.27-2.83-2.83
	c0-1.57,1.27-2.83,2.83-2.83c1.57,0,2.83,1.27,2.83,2.83C371.92,454.35,370.65,455.62,369.09,455.62z M369.09,444.59
	c-1.57,0-2.83-1.27-2.83-2.83c0-1.57,1.27-2.83,2.83-2.83c1.57,0,2.83,1.27,2.83,2.83C371.92,443.32,370.65,444.59,369.09,444.59z
	 M369.09,433.56c-1.57,0-2.83-1.27-2.83-2.83c0-1.57,1.27-2.83,2.83-2.83c1.57,0,2.83,1.27,2.83,2.83
	C371.92,432.29,370.65,433.56,369.09,433.56z M369.09,422.53c-1.57,0-2.83-1.27-2.83-2.83s1.27-2.83,2.83-2.83
	c1.57,0,2.83,1.27,2.83,2.83S370.65,422.53,369.09,422.53z M369.09,411.5c-1.57,0-2.83-1.27-2.83-2.83s1.27-2.83,2.83-2.83
	c1.57,0,2.83,1.27,2.83,2.83S370.65,411.5,369.09,411.5z M369.09,400.47c-1.57,0-2.83-1.27-2.83-2.83s1.27-2.83,2.83-2.83
	c1.57,0,2.83,1.27,2.83,2.83S370.65,400.47,369.09,400.47z M369.09,389.44c-1.57,0-2.83-1.27-2.83-2.83c0-1.57,1.27-2.83,2.83-2.83
	c1.57,0,2.83,1.27,2.83,2.83C371.92,388.18,370.65,389.44,369.09,389.44z M369.09,378.42c-1.57,0-2.83-1.27-2.83-2.83
	c0-1.57,1.27-2.83,2.83-2.83c1.57,0,2.83,1.27,2.83,2.83C371.92,377.15,370.65,378.42,369.09,378.42z M369.09,367.39
	c-1.57,0-2.83-1.27-2.83-2.83c0-1.57,1.27-2.83,2.83-2.83c1.57,0,2.83,1.27,2.83,2.83C371.92,366.12,370.65,367.39,369.09,367.39z
	 M377.8,499.73c-1.57,0-2.83-1.27-2.83-2.83s1.27-2.83,2.83-2.83c1.57,0,2.83,1.27,2.83,2.83S379.36,499.73,377.8,499.73z
	 M377.8,488.7c-1.57,0-2.83-1.27-2.83-2.83s1.27-2.83,2.83-2.83c1.57,0,2.83,1.27,2.83,2.83S379.36,488.7,377.8,488.7z
	 M377.8,477.67c-1.57,0-2.83-1.27-2.83-2.83c0-1.57,1.27-2.83,2.83-2.83c1.57,0,2.83,1.27,2.83,2.83
	C380.63,476.4,379.36,477.67,377.8,477.67z M377.8,466.65c-1.57,0-2.83-1.27-2.83-2.83c0-1.57,1.27-2.83,2.83-2.83
	c1.57,0,2.83,1.27,2.83,2.83C380.63,465.38,379.36,466.65,377.8,466.65z M377.8,455.62c-1.57,0-2.83-1.27-2.83-2.83
	c0-1.57,1.27-2.83,2.83-2.83c1.57,0,2.83,1.27,2.83,2.83C380.63,454.35,379.36,455.62,377.8,455.62z M377.8,444.59
	c-1.57,0-2.83-1.27-2.83-2.83c0-1.57,1.27-2.83,2.83-2.83c1.57,0,2.83,1.27,2.83,2.83C380.63,443.32,379.36,444.59,377.8,444.59z
	 M377.8,433.56c-1.57,0-2.83-1.27-2.83-2.83c0-1.57,1.27-2.83,2.83-2.83c1.57,0,2.83,1.27,2.83,2.83
	C380.63,432.29,379.36,433.56,377.8,433.56z M377.8,422.53c-1.57,0-2.83-1.27-2.83-2.83s1.27-2.83,2.83-2.83
	c1.57,0,2.83,1.27,2.83,2.83S379.36,422.53,377.8,422.53z M377.8,411.5c-1.57,0-2.83-1.27-2.83-2.83s1.27-2.83,2.83-2.83
	c1.57,0,2.83,1.27,2.83,2.83S379.36,411.5,377.8,411.5z M377.8,400.47c-1.57,0-2.83-1.27-2.83-2.83s1.27-2.83,2.83-2.83
	c1.57,0,2.83,1.27,2.83,2.83S379.36,400.47,377.8,400.47z M377.8,389.44c-1.57,0-2.83-1.27-2.83-2.83c0-1.57,1.27-2.83,2.83-2.83
	c1.57,0,2.83,1.27,2.83,2.83C380.63,388.18,379.36,389.44,377.8,389.44z M377.8,378.42c-1.57,0-2.83-1.27-2.83-2.83
	c0-1.57,1.27-2.83,2.83-2.83c1.57,0,2.83,1.27,2.83,2.83C380.63,377.15,379.36,378.42,377.8,378.42z M377.8,367.39
	c-1.57,0-2.83-1.27-2.83-2.83c0-1.57,1.27-2.83,2.83-2.83c1.57,0,2.83,1.27,2.83,2.83C380.63,366.12,379.36,367.39,377.8,367.39z
	 M386.5,499.73c-1.57,0-2.83-1.27-2.83-2.83s1.27-2.83,2.83-2.83c1.57,0,2.83,1.27,2.83,2.83S388.07,499.73,386.5,499.73z
	 M386.5,488.7c-1.57,0-2.83-1.27-2.83-2.83s1.27-2.83,2.83-2.83c1.57,0,2.83,1.27,2.83,2.83S388.07,488.7,386.5,488.7z
	 M386.5,477.67c-1.57,0-2.83-1.27-2.83-2.83c0-1.57,1.27-2.83,2.83-2.83c1.57,0,2.83,1.27,2.83,2.83
	C389.34,476.4,388.07,477.67,386.5,477.67z M386.5,466.65c-1.57,0-2.83-1.27-2.83-2.83c0-1.57,1.27-2.83,2.83-2.83
	c1.57,0,2.83,1.27,2.83,2.83C389.34,465.38,388.07,466.65,386.5,466.65z M386.5,455.62c-1.57,0-2.83-1.27-2.83-2.83
	c0-1.57,1.27-2.83,2.83-2.83c1.57,0,2.83,1.27,2.83,2.83C389.34,454.35,388.07,455.62,386.5,455.62z M386.5,444.59
	c-1.57,0-2.83-1.27-2.83-2.83c0-1.57,1.27-2.83,2.83-2.83c1.57,0,2.83,1.27,2.83,2.83C389.34,443.32,388.07,444.59,386.5,444.59z
	 M386.5,433.56c-1.57,0-2.83-1.27-2.83-2.83c0-1.57,1.27-2.83,2.83-2.83c1.57,0,2.83,1.27,2.83,2.83
	C389.34,432.29,388.07,433.56,386.5,433.56z M386.5,422.53c-1.57,0-2.83-1.27-2.83-2.83s1.27-2.83,2.83-2.83
	c1.57,0,2.83,1.27,2.83,2.83S388.07,422.53,386.5,422.53z M386.5,411.5c-1.57,0-2.83-1.27-2.83-2.83s1.27-2.83,2.83-2.83
	c1.57,0,2.83,1.27,2.83,2.83S388.07,411.5,386.5,411.5z M386.5,400.47c-1.57,0-2.83-1.27-2.83-2.83s1.27-2.83,2.83-2.83
	c1.57,0,2.83,1.27,2.83,2.83S388.07,400.47,386.5,400.47z M386.5,389.44c-1.57,0-2.83-1.27-2.83-2.83c0-1.57,1.27-2.83,2.83-2.83
	c1.57,0,2.83,1.27,2.83,2.83C389.34,388.18,388.07,389.44,386.5,389.44z M386.5,378.42c-1.57,0-2.83-1.27-2.83-2.83
	c0-1.57,1.27-2.83,2.83-2.83c1.57,0,2.83,1.27,2.83,2.83C389.34,377.15,388.07,378.42,386.5,378.42z M386.5,367.39
	c-1.57,0-2.83-1.27-2.83-2.83c0-1.57,1.27-2.83,2.83-2.83c1.57,0,2.83,1.27,2.83,2.83C389.34,366.12,388.07,367.39,386.5,367.39z
	 M395.21,499.73c-1.57,0-2.83-1.27-2.83-2.83s1.27-2.83,2.83-2.83c1.57,0,2.83,1.27,2.83,2.83S396.78,499.73,395.21,499.73z
	 M395.21,488.7c-1.57,0-2.83-1.27-2.83-2.83s1.27-2.83,2.83-2.83c1.57,0,2.83,1.27,2.83,2.83S396.78,488.7,395.21,488.7z
	 M395.21,477.67c-1.57,0-2.83-1.27-2.83-2.83c0-1.57,1.27-2.83,2.83-2.83c1.57,0,2.83,1.27,2.83,2.83
	C398.05,476.4,396.78,477.67,395.21,477.67z M395.21,466.65c-1.57,0-2.83-1.27-2.83-2.83c0-1.57,1.27-2.83,2.83-2.83
	c1.57,0,2.83,1.27,2.83,2.83C398.05,465.38,396.78,466.65,395.21,466.65z M395.21,455.62c-1.57,0-2.83-1.27-2.83-2.83
	c0-1.57,1.27-2.83,2.83-2.83c1.57,0,2.83,1.27,2.83,2.83C398.05,454.35,396.78,455.62,395.21,455.62z M395.21,444.59
	c-1.57,0-2.83-1.27-2.83-2.83c0-1.57,1.27-2.83,2.83-2.83c1.57,0,2.83,1.27,2.83,2.83C398.05,443.32,396.78,444.59,395.21,444.59z
	 M395.21,433.56c-1.57,0-2.83-1.27-2.83-2.83c0-1.57,1.27-2.83,2.83-2.83c1.57,0,2.83,1.27,2.83,2.83
	C398.05,432.29,396.78,433.56,395.21,433.56z M395.21,422.53c-1.57,0-2.83-1.27-2.83-2.83s1.27-2.83,2.83-2.83
	c1.57,0,2.83,1.27,2.83,2.83S396.78,422.53,395.21,422.53z M395.21,411.5c-1.57,0-2.83-1.27-2.83-2.83s1.27-2.83,2.83-2.83
	c1.57,0,2.83,1.27,2.83,2.83S396.78,411.5,395.21,411.5z M395.21,400.47c-1.57,0-2.83-1.27-2.83-2.83s1.27-2.83,2.83-2.83
	c1.57,0,2.83,1.27,2.83,2.83S396.78,400.47,395.21,400.47z M395.21,389.44c-1.57,0-2.83-1.27-2.83-2.83c0-1.57,1.27-2.83,2.83-2.83
	c1.57,0,2.83,1.27,2.83,2.83C398.05,388.18,396.78,389.44,395.21,389.44z M395.21,378.42c-1.57,0-2.83-1.27-2.83-2.83
	c0-1.57,1.27-2.83,2.83-2.83c1.57,0,2.83,1.27,2.83,2.83C398.05,377.15,396.78,378.42,395.21,378.42z M395.21,367.39
	c-1.57,0-2.83-1.27-2.83-2.83c0-1.57,1.27-2.83,2.83-2.83c1.57,0,2.83,1.27,2.83,2.83C398.05,366.12,396.78,367.39,395.21,367.39z
	 M403.92,499.73c-1.57,0-2.83-1.27-2.83-2.83s1.27-2.83,2.83-2.83c1.57,0,2.83,1.27,2.83,2.83S405.48,499.73,403.92,499.73z
	 M403.92,488.7c-1.57,0-2.83-1.27-2.83-2.83s1.27-2.83,2.83-2.83c1.57,0,2.83,1.27,2.83,2.83S405.48,488.7,403.92,488.7z
	 M403.92,477.67c-1.57,0-2.83-1.27-2.83-2.83c0-1.57,1.27-2.83,2.83-2.83c1.57,0,2.83,1.27,2.83,2.83
	C406.75,476.4,405.48,477.67,403.92,477.67z M403.92,466.65c-1.57,0-2.83-1.27-2.83-2.83c0-1.57,1.27-2.83,2.83-2.83
	c1.57,0,2.83,1.27,2.83,2.83C406.75,465.38,405.48,466.65,403.92,466.65z M403.92,455.62c-1.57,0-2.83-1.27-2.83-2.83
	c0-1.57,1.27-2.83,2.83-2.83c1.57,0,2.83,1.27,2.83,2.83C406.75,454.35,405.48,455.62,403.92,455.62z M403.92,444.59
	c-1.57,0-2.83-1.27-2.83-2.83c0-1.57,1.27-2.83,2.83-2.83c1.57,0,2.83,1.27,2.83,2.83C406.75,443.32,405.48,444.59,403.92,444.59z
	 M403.92,433.56c-1.57,0-2.83-1.27-2.83-2.83c0-1.57,1.27-2.83,2.83-2.83c1.57,0,2.83,1.27,2.83,2.83
	C406.75,432.29,405.48,433.56,403.92,433.56z M403.92,422.53c-1.57,0-2.83-1.27-2.83-2.83s1.27-2.83,2.83-2.83
	c1.57,0,2.83,1.27,2.83,2.83S405.48,422.53,403.92,422.53z M403.92,411.5c-1.57,0-2.83-1.27-2.83-2.83s1.27-2.83,2.83-2.83
	c1.57,0,2.83,1.27,2.83,2.83S405.48,411.5,403.92,411.5z M403.92,400.47c-1.57,0-2.83-1.27-2.83-2.83s1.27-2.83,2.83-2.83
	c1.57,0,2.83,1.27,2.83,2.83S405.48,400.47,403.92,400.47z M403.92,389.44c-1.57,0-2.83-1.27-2.83-2.83c0-1.57,1.27-2.83,2.83-2.83
	c1.57,0,2.83,1.27,2.83,2.83C406.75,388.18,405.48,389.44,403.92,389.44z M403.92,378.42c-1.57,0-2.83-1.27-2.83-2.83
	c0-1.57,1.27-2.83,2.83-2.83c1.57,0,2.83,1.27,2.83,2.83C406.75,377.15,405.48,378.42,403.92,378.42z M403.92,367.39
	c-1.57,0-2.83-1.27-2.83-2.83c0-1.57,1.27-2.83,2.83-2.83c1.57,0,2.83,1.27,2.83,2.83C406.75,366.12,405.48,367.39,403.92,367.39z
	 M412.63,499.73c-1.57,0-2.83-1.27-2.83-2.83s1.27-2.83,2.83-2.83s2.83,1.27,2.83,2.83S414.19,499.73,412.63,499.73z M412.63,488.7
	c-1.57,0-2.83-1.27-2.83-2.83s1.27-2.83,2.83-2.83s2.83,1.27,2.83,2.83S414.19,488.7,412.63,488.7z M412.63,477.67
	c-1.57,0-2.83-1.27-2.83-2.83c0-1.57,1.27-2.83,2.83-2.83s2.83,1.27,2.83,2.83C415.46,476.4,414.19,477.67,412.63,477.67z
	 M412.63,466.65c-1.57,0-2.83-1.27-2.83-2.83c0-1.57,1.27-2.83,2.83-2.83s2.83,1.27,2.83,2.83
	C415.46,465.38,414.19,466.65,412.63,466.65z M412.63,455.62c-1.57,0-2.83-1.27-2.83-2.83c0-1.57,1.27-2.83,2.83-2.83
	s2.83,1.27,2.83,2.83C415.46,454.35,414.19,455.62,412.63,455.62z M412.63,444.59c-1.57,0-2.83-1.27-2.83-2.83
	c0-1.57,1.27-2.83,2.83-2.83s2.83,1.27,2.83,2.83C415.46,443.32,414.19,444.59,412.63,444.59z M412.63,433.56
	c-1.57,0-2.83-1.27-2.83-2.83c0-1.57,1.27-2.83,2.83-2.83s2.83,1.27,2.83,2.83C415.46,432.29,414.19,433.56,412.63,433.56z
	 M412.63,422.53c-1.57,0-2.83-1.27-2.83-2.83s1.27-2.83,2.83-2.83s2.83,1.27,2.83,2.83S414.19,422.53,412.63,422.53z M412.63,411.5
	c-1.57,0-2.83-1.27-2.83-2.83s1.27-2.83,2.83-2.83s2.83,1.27,2.83,2.83S414.19,411.5,412.63,411.5z M412.63,400.47
	c-1.57,0-2.83-1.27-2.83-2.83s1.27-2.83,2.83-2.83s2.83,1.27,2.83,2.83S414.19,400.47,412.63,400.47z M412.63,389.44
	c-1.57,0-2.83-1.27-2.83-2.83c0-1.57,1.27-2.83,2.83-2.83s2.83,1.27,2.83,2.83C415.46,388.18,414.19,389.44,412.63,389.44z
	 M412.63,378.42c-1.57,0-2.83-1.27-2.83-2.83c0-1.57,1.27-2.83,2.83-2.83s2.83,1.27,2.83,2.83
	C415.46,377.15,414.19,378.42,412.63,378.42z M412.63,367.39c-1.57,0-2.83-1.27-2.83-2.83c0-1.57,1.27-2.83,2.83-2.83
	s2.83,1.27,2.83,2.83C415.46,366.12,414.19,367.39,412.63,367.39z M421.33,499.73c-1.57,0-2.83-1.27-2.83-2.83s1.27-2.83,2.83-2.83
	s2.83,1.27,2.83,2.83S422.9,499.73,421.33,499.73z M421.33,488.7c-1.57,0-2.83-1.27-2.83-2.83s1.27-2.83,2.83-2.83
	s2.83,1.27,2.83,2.83S422.9,488.7,421.33,488.7z M421.33,477.67c-1.57,0-2.83-1.27-2.83-2.83c0-1.57,1.27-2.83,2.83-2.83
	s2.83,1.27,2.83,2.83C424.17,476.4,422.9,477.67,421.33,477.67z M421.33,466.65c-1.57,0-2.83-1.27-2.83-2.83
	c0-1.57,1.27-2.83,2.83-2.83s2.83,1.27,2.83,2.83C424.17,465.38,422.9,466.65,421.33,466.65z M421.33,455.62
	c-1.57,0-2.83-1.27-2.83-2.83c0-1.57,1.27-2.83,2.83-2.83s2.83,1.27,2.83,2.83C424.17,454.35,422.9,455.62,421.33,455.62z
	 M421.33,444.59c-1.57,0-2.83-1.27-2.83-2.83c0-1.57,1.27-2.83,2.83-2.83s2.83,1.27,2.83,2.83
	C424.17,443.32,422.9,444.59,421.33,444.59z M421.33,433.56c-1.57,0-2.83-1.27-2.83-2.83c0-1.57,1.27-2.83,2.83-2.83
	s2.83,1.27,2.83,2.83C424.17,432.29,422.9,433.56,421.33,433.56z M421.33,422.53c-1.57,0-2.83-1.27-2.83-2.83s1.27-2.83,2.83-2.83
	s2.83,1.27,2.83,2.83S422.9,422.53,421.33,422.53z M421.33,411.5c-1.57,0-2.83-1.27-2.83-2.83s1.27-2.83,2.83-2.83
	s2.83,1.27,2.83,2.83S422.9,411.5,421.33,411.5z M421.33,400.47c-1.57,0-2.83-1.27-2.83-2.83s1.27-2.83,2.83-2.83
	s2.83,1.27,2.83,2.83S422.9,400.47,421.33,400.47z M421.33,389.44c-1.57,0-2.83-1.27-2.83-2.83c0-1.57,1.27-2.83,2.83-2.83
	s2.83,1.27,2.83,2.83C424.17,388.18,422.9,389.44,421.33,389.44z M421.33,378.42c-1.57,0-2.83-1.27-2.83-2.83
	c0-1.57,1.27-2.83,2.83-2.83s2.83,1.27,2.83,2.83C424.17,377.15,422.9,378.42,421.33,378.42z M421.33,367.39
	c-1.57,0-2.83-1.27-2.83-2.83c0-1.57,1.27-2.83,2.83-2.83s2.83,1.27,2.83,2.83C424.17,366.12,422.9,367.39,421.33,367.39z
	 M430.04,499.73c-1.57,0-2.83-1.27-2.83-2.83s1.27-2.83,2.83-2.83s2.83,1.27,2.83,2.83S431.61,499.73,430.04,499.73z M430.04,488.7
	c-1.57,0-2.83-1.27-2.83-2.83s1.27-2.83,2.83-2.83s2.83,1.27,2.83,2.83S431.61,488.7,430.04,488.7z M430.04,477.67
	c-1.57,0-2.83-1.27-2.83-2.83c0-1.57,1.27-2.83,2.83-2.83s2.83,1.27,2.83,2.83C432.88,476.4,431.61,477.67,430.04,477.67z
	 M430.04,466.65c-1.57,0-2.83-1.27-2.83-2.83c0-1.57,1.27-2.83,2.83-2.83s2.83,1.27,2.83,2.83
	C432.88,465.38,431.61,466.65,430.04,466.65z M430.04,455.62c-1.57,0-2.83-1.27-2.83-2.83c0-1.57,1.27-2.83,2.83-2.83
	s2.83,1.27,2.83,2.83C432.88,454.35,431.61,455.62,430.04,455.62z M430.04,444.59c-1.57,0-2.83-1.27-2.83-2.83
	c0-1.57,1.27-2.83,2.83-2.83s2.83,1.27,2.83,2.83C432.88,443.32,431.61,444.59,430.04,444.59z M430.04,433.56
	c-1.57,0-2.83-1.27-2.83-2.83c0-1.57,1.27-2.83,2.83-2.83s2.83,1.27,2.83,2.83C432.88,432.29,431.61,433.56,430.04,433.56z
	 M430.04,422.53c-1.57,0-2.83-1.27-2.83-2.83s1.27-2.83,2.83-2.83s2.83,1.27,2.83,2.83S431.61,422.53,430.04,422.53z M430.04,411.5
	c-1.57,0-2.83-1.27-2.83-2.83s1.27-2.83,2.83-2.83s2.83,1.27,2.83,2.83S431.61,411.5,430.04,411.5z M430.04,400.47
	c-1.57,0-2.83-1.27-2.83-2.83s1.27-2.83,2.83-2.83s2.83,1.27,2.83,2.83S431.61,400.47,430.04,400.47z M430.04,389.44
	c-1.57,0-2.83-1.27-2.83-2.83c0-1.57,1.27-2.83,2.83-2.83s2.83,1.27,2.83,2.83C432.88,388.18,431.61,389.44,430.04,389.44z
	 M430.04,378.42c-1.57,0-2.83-1.27-2.83-2.83c0-1.57,1.27-2.83,2.83-2.83s2.83,1.27,2.83,2.83
	C432.88,377.15,431.61,378.42,430.04,378.42z M430.04,367.39c-1.57,0-2.83-1.27-2.83-2.83c0-1.57,1.27-2.83,2.83-2.83
	s2.83,1.27,2.83,2.83C432.88,366.12,431.61,367.39,430.04,367.39z"/>
</svg>
