<?xml version="1.0" encoding="utf-8"?>
<!-- Generator: Adobe Illustrator 30.3.0, SVG Export Plug-In . SVG Version: 9.03 Build 0)  -->
<svg version="1.1"
	 id="Layer_1" xmlns:cc="http://creativecommons.org/ns#" xmlns:inkscape="http://www.inkscape.org/namespaces/inkscape" xmlns:rdf="http://www.w3.org/1999/02/22-rdf-syntax-ns#" xmlns:dc="http://purl.org/dc/elements/1.1/" xmlns:svg="http://www.w3.org/2000/svg"
	 xmlns="http://www.w3.org/2000/svg" xmlns:xlink="http://www.w3.org/1999/xlink" x="0px" y="0px" viewBox="0 0 636.66 579.4"
	 style="enable-background:new 0 0 636.66 579.4;" xml:space="preserve">
<g id="p-2">
	<path d="M329.81,517.89h15.42c0.08,0,0.14-0.06,0.14-0.14v-8.93h9.69v8.93c0,0.08,0.06,0.14,0.14,0.14h8.16
		c0.08,0,0.14-0.06,0.14-0.14v-8.93h9.69v8.93c0,0.08,0.06,0.14,0.14,0.14h8.16c0.08,0,0.14-0.06,0.14-0.14v-8.93h9.69v8.93
		c0,0.08,0.06,0.14,0.14,0.14h8.16c0.08,0,0.14-0.06,0.14-0.14v-8.93h9.69v8.93c0,0.08,0.06,0.14,0.14,0.14h8.16
		c0.08,0,0.14-0.06,0.14-0.14v-8.93h9.69v8.93c0,0.08,0.06,0.14,0.14,0.14h15.42c0.08,0,0.14-0.06,0.14-0.14v-9.07v-9.78h8.93
		c0.08,0,0.14-0.06,0.14-0.14v-9.07c0-0.08-0.06-0.14-0.14-0.14h-8.93v-8.79h8.93c0.08,0,0.14-0.06,0.14-0.14v-9.07
		c0-0.08-0.06-0.14-0.14-0.14h-8.93v-8.79h8.93c0.08,0,0.14-0.06,0.14-0.14v-9.07c0-0.08-0.06-0.14-0.14-0.14h-8.93v-8.79h8.93
		c0.08,0,0.14-0.06,0.14-0.14v-9.07c0-0.08-0.06-0.14-0.14-0.14h-8.93v-8.79h8.93c0.08,0,0.14-0.06,0.14-0.14v-9.07
		c0-0.08-0.06-0.14-0.14-0.14h-8.93v-8.79h8.93c0.08,0,0.14-0.06,0.14-0.14v-9.07c0-0.08-0.06-0.14-0.14-0.14h-8.93v-8.79h8.93
		c0.08,0,0.14-0.06,0.14-0.14v-9.07c0-0.08-0.06-0.14-0.14-0.14h-8.93v-8.79h8.93c0.08,0,0.14-0.06,0.14-0.14v-9.07
		c0-0.08-0.06-0.14-0.14-0.14h-8.93v-9.78v-9.07c0-0.08-0.06-0.14-0.14-0.14h-15.42c-0.08,0-0.14,0.06-0.14,0.14v8.93h-9.69v-8.93
		c0-0.08-0.06-0.14-0.14-0.14h-8.16c-0.08,0-0.14,0.06-0.14,0.14v8.93h-9.69v-8.93c0-0.08-0.06-0.14-0.14-0.14h-8.16
		c-0.08,0-0.14,0.06-0.14,0.14v8.93h-9.69v-8.93c0-0.08-0.06-0.14-0.14-0.14h-8.16c-0.08,0-0.14,0.06-0.14,0.14v8.93h-9.69v-8.93
		c0-0.08-0.06-0.14-0.14-0.14h-8.16c-0.08,0-0.14,0.06-0.14,0.14v8.93h-9.69v-8.93c0-0.08-0.06-0.14-0.14-0.14h-15.42
		c-0.08,0-0.14,0.06-0.14,0.14v9.07v9.78h-8.93c-0.08,0-0.14,0.06-0.14,0.14v9.07c0,0.08,0.06,0.14,0.14,0.14h8.93v8.79h-8.93
		c-0.08,0-0.14,0.06-0.14,0.14v9.07c0,0.08,0.06,0.14,0.14,0.14h8.93v8.79h-8.93c-0.08,0-0.14,0.06-0.14,0.14v9.07
		c0,0.08,0.06,0.14,0.14,0.14h8.93v8.79h-8.93c-0.08,0-0.14,0.06-0.14,0.14v9.07c0,0.08,0.06,0.14,0.14,0.14h8.93v8.79h-8.93
		c-0.08,0-0.14,0.06-0.14,0.14v9.07c0,0.08,0.06,0.14,0.14,0.14h8.93v8.79h-8.93c-0.08,0-0.14,0.06-0.14,0.14v9.07
		c0,0.08,0.06,0.14,0.14,0.14h8.93v8.79h-8.93c-0.08,0-0.14,0.06-0.14,0.14v9.07c0,0.08,0.06,0.14,0.14,0.14h8.93v8.79h-8.93
		c-0.08,0-0.14,0.06-0.14,0.14v9.07c0,0.08,0.06,0.14,0.14,0.14h8.93v9.78v9.07C329.67,517.83,329.73,517.89,329.81,517.89z"/>
</g>
<g id="p-3">
	<path d="M329.81,339.02h15.42c0.08,0,0.14-0.06,0.14-0.14v-8.93h9.69v8.93c0,0.08,0.06,0.14,0.14,0.14h8.16
		c0.08,0,0.14-0.06,0.14-0.14v-8.93h9.69v8.93c0,0.08,0.06,0.14,0.14,0.14h8.16c0.08,0,0.14-0.06,0.14-0.14v-8.93h9.69v8.93
		c0,0.08,0.06,0.14,0.14,0.14h8.16c0.08,0,0.14-0.06,0.14-0.14v-8.93h9.69v8.93c0,0.08,0.06,0.14,0.14,0.14h8.16
		c0.08,0,0.14-0.06,0.14-0.14v-8.93h9.69v8.93c0,0.08,0.06,0.14,0.14,0.14h15.42c0.08,0,0.14-0.06,0.14-0.14v-9.07v-9.78h8.93
		c0.08,0,0.14-0.06,0.14-0.14v-9.07c0-0.08-0.06-0.14-0.14-0.14h-8.93v-8.79h8.93c0.08,0,0.14-0.06,0.14-0.14v-9.07
		c0-0.08-0.06-0.14-0.14-0.14h-8.93v-8.79h8.93c0.08,0,0.14-0.06,0.14-0.14v-9.07c0-0.08-0.06-0.14-0.14-0.14h-8.93v-8.79h8.93
		c0.08,0,0.14-0.06,0.14-0.14v-9.07c0-0.08-0.06-0.14-0.14-0.14h-8.93v-8.79h8.93c0.08,0,0.14-0.06,0.14-0.14v-9.07
		c0-0.08-0.06-0.14-0.14-0.14h-8.93v-8.79h8.93c0.08,0,0.14-0.06,0.14-0.14v-9.07c0-0.08-0.06-0.14-0.14-0.14h-8.93v-8.79h8.93
		c0.08,0,0.14-0.06,0.14-0.14v-9.07c0-0.08-0.06-0.14-0.14-0.14h-8.93v-8.79h8.93c0.08,0,0.14-0.06,0.14-0.14v-9.07
		c0-0.08-0.06-0.14-0.14-0.14h-8.93v-9.78v-9.07c0-0.08-0.06-0.14-0.14-0.14h-15.42c-0.08,0-0.14,0.06-0.14,0.14v8.93h-9.69v-8.93
		c0-0.08-0.06-0.14-0.14-0.14h-8.16c-0.08,0-0.14,0.06-0.14,0.14v8.93h-9.69v-8.93c0-0.08-0.06-0.14-0.14-0.14h-8.16
		c-0.08,0-0.14,0.06-0.14,0.14v8.93h-9.69v-8.93c0-0.08-0.06-0.14-0.14-0.14h-8.16c-0.08,0-0.14,0.06-0.14,0.14v8.93h-9.69v-8.93
		c0-0.08-0.06-0.14-0.14-0.14h-8.16c-0.08,0-0.14,0.06-0.14,0.14v8.93h-9.69v-8.93c0-0.08-0.06-0.14-0.14-0.14h-15.42
		c-0.08,0-0.14,0.06-0.14,0.14v9.07v9.78h-8.93c-0.08,0-0.14,0.06-0.14,0.14v9.07c0,0.08,0.06,0.14,0.14,0.14h8.93v8.79h-8.93
		c-0.08,0-0.14,0.06-0.14,0.14v9.07c0,0.08,0.06,0.14,0.14,0.14h8.93v8.79h-8.93c-0.08,0-0.14,0.06-0.14,0.14v9.07
		c0,0.08,0.06,0.14,0.14,0.14h8.93v8.79h-8.93c-0.08,0-0.14,0.06-0.14,0.14v9.07c0,0.08,0.06,0.14,0.14,0.14h8.93v8.79h-8.93
		c-0.08,0-0.14,0.06-0.14,0.14v9.07c0,0.08,0.06,0.14,0.14,0.14h8.93v8.79h-8.93c-0.08,0-0.14,0.06-0.14,0.14v9.07
		c0,0.08,0.06,0.14,0.14,0.14h8.93v8.79h-8.93c-0.08,0-0.14,0.06-0.14,0.14v9.07c0,0.08,0.06,0.14,0.14,0.14h8.93v8.79h-8.93
		c-0.08,0-0.14,0.06-0.14,0.14v9.07c0,0.08,0.06,0.14,0.14,0.14h8.93v9.78v9.07C329.67,338.96,329.73,339.02,329.81,339.02z"/>
</g>
<g id="p-5">
	<path d="M37.56,151.09h12.05v8.93c0,0.08,0.06,0.14,0.14,0.14h9.07c0.08,0,0.14-0.06,0.14-0.14v-8.93h8.79v8.93
		c0,0.08,0.06,0.14,0.14,0.14h9.07c0.08,0,0.14-0.06,0.14-0.14v-8.93h8.79v8.93c0,0.08,0.06,0.14,0.14,0.14h9.07
		c0.08,0,0.14-0.06,0.14-0.14v-8.93h8.79v8.93c0,0.08,0.06,0.14,0.14,0.14h9.07c0.08,0,0.14-0.06,0.14-0.14v-8.93h8.79v8.93
		c0,0.08,0.06,0.14,0.14,0.14h9.07c0.08,0,0.14-0.06,0.14-0.14v-8.93h8.79v8.93c0,0.08,0.06,0.14,0.14,0.14h9.07
		c0.08,0,0.14-0.06,0.14-0.14v-8.93h8.79v8.93c0,0.08,0.06,0.14,0.14,0.14h9.07c0.08,0,0.14-0.06,0.14-0.14v-8.93h8.79v8.93
		c0,0.08,0.06,0.14,0.14,0.14h9.07c0.08,0,0.14-0.06,0.14-0.14v-8.93h8.79v8.93c0,0.08,0.06,0.14,0.14,0.14h9.07
		c0.08,0,0.14-0.06,0.14-0.14v-8.93h8.79v8.93c0,0.08,0.06,0.14,0.14,0.14h9.07c0.08,0,0.14-0.06,0.14-0.14v-8.93h8.79v8.93
		c0,0.08,0.06,0.14,0.14,0.14h9.07c0.08,0,0.14-0.06,0.14-0.14v-8.93h8.79v8.93c0,0.08,0.06,0.14,0.14,0.14h9.07
		c0.08,0,0.14-0.06,0.14-0.14v-8.93h8.79v8.93c0,0.08,0.06,0.14,0.14,0.14h9.07c0.08,0,0.14-0.06,0.14-0.14v-8.93h8.79v8.93
		c0,0.08,0.06,0.14,0.14,0.14h9.07c0.08,0,0.14-0.06,0.14-0.14v-8.93h12.05c0.08,0,0.14-0.06,0.14-0.14v-15.73h8.93
		c0.08,0,0.14-0.06,0.14-0.14V126c0-0.08-0.06-0.14-0.14-0.14h-8.93v-8.79h8.93c0.08,0,0.14-0.06,0.14-0.14v-9.07
		c0-0.08-0.06-0.14-0.14-0.14h-8.93v-8.79h8.93c0.08,0,0.14-0.06,0.14-0.14v-9.07c0-0.08-0.06-0.14-0.14-0.14h-8.93v-8.79h8.93
		c0.08,0,0.14-0.06,0.14-0.14v-9.07c0-0.08-0.06-0.14-0.14-0.14h-8.93v-8.79h8.93c0.08,0,0.14-0.06,0.14-0.14v-9.07
		c0-0.08-0.06-0.14-0.14-0.14h-8.93V37.56c0-0.08-0.06-0.14-0.14-0.14H294.8v-8.93c0-0.08-0.06-0.14-0.14-0.14h-9.07
		c-0.08,0-0.14,0.06-0.14,0.14v8.93h-8.79v-8.93c0-0.08-0.06-0.14-0.14-0.14h-9.07c-0.08,0-0.14,0.06-0.14,0.14v8.93h-8.79v-8.93
		c0-0.08-0.06-0.14-0.14-0.14h-9.07c-0.08,0-0.14,0.06-0.14,0.14v8.93h-8.79v-8.93c0-0.08-0.06-0.14-0.14-0.14h-9.07
		c-0.08,0-0.14,0.06-0.14,0.14v8.93h-8.79v-8.93c0-0.08-0.06-0.14-0.14-0.14h-9.07c-0.08,0-0.14,0.06-0.14,0.14v8.93h-8.79v-8.93
		c0-0.08-0.06-0.14-0.14-0.14h-9.07c-0.08,0-0.14,0.06-0.14,0.14v8.93h-8.79v-8.93c0-0.08-0.06-0.14-0.14-0.14h-9.07
		c-0.08,0-0.14,0.06-0.14,0.14v8.93h-8.79v-8.93c0-0.08-0.06-0.14-0.14-0.14h-9.07c-0.08,0-0.14,0.06-0.14,0.14v8.93h-8.79v-8.93
		c0-0.08-0.06-0.14-0.14-0.14h-9.07c-0.08,0-0.14,0.06-0.14,0.14v8.93h-8.79v-8.93c0-0.08-0.06-0.14-0.14-0.14h-9.07
		c-0.08,0-0.14,0.06-0.14,0.14v8.93h-8.79v-8.93c0-0.08-0.06-0.14-0.14-0.14h-9.07c-0.08,0-0.14,0.06-0.14,0.14v8.93h-8.79v-8.93
		c0-0.08-0.06-0.14-0.14-0.14h-9.07c-0.08,0-0.14,0.06-0.14,0.14v8.93H77.1v-8.93c0-0.08-0.06-0.14-0.14-0.14h-9.07
		c-0.08,0-0.14,0.06-0.14,0.14v8.93h-8.79v-8.93c0-0.08-0.06-0.14-0.14-0.14h-9.07c-0.08,0-0.14,0.06-0.14,0.14v8.93H37.56
		c-0.08,0-0.14,0.06-0.14,0.14v15.73h-8.93c-0.08,0-0.14,0.06-0.14,0.14v9.07c0,0.08,0.06,0.14,0.14,0.14h8.93v8.79h-8.93
		c-0.08,0-0.14,0.06-0.14,0.14v9.07c0,0.08,0.06,0.14,0.14,0.14h8.93v8.79h-8.93c-0.08,0-0.14,0.06-0.14,0.14v9.07
		c0,0.08,0.06,0.14,0.14,0.14h8.93v8.79h-8.93c-0.08,0-0.14,0.06-0.14,0.14v9.07c0,0.08,0.06,0.14,0.14,0.14h8.93v8.79h-8.93
		c-0.08,0-0.14,0.06-0.14,0.14v9.07c0,0.08,0.06,0.14,0.14,0.14h8.93v15.73C37.42,151.02,37.48,151.09,37.56,151.09z"/>
</g>
<g id="p-6">
	<path d="M329.81,151.09h12.05v8.93c0,0.08,0.06,0.14,0.14,0.14h9.07c0.08,0,0.14-0.06,0.14-0.14v-8.93H360v8.93
		c0,0.08,0.06,0.14,0.14,0.14h9.07c0.08,0,0.14-0.06,0.14-0.14v-8.93h8.79v8.93c0,0.08,0.06,0.14,0.14,0.14h9.07
		c0.08,0,0.14-0.06,0.14-0.14v-8.93h8.79v8.93c0,0.08,0.06,0.14,0.14,0.14h9.07c0.08,0,0.14-0.06,0.14-0.14v-8.93h8.79v8.93
		c0,0.08,0.06,0.14,0.14,0.14h9.07c0.08,0,0.14-0.06,0.14-0.14v-8.93h8.79v8.93c0,0.08,0.06,0.14,0.14,0.14h9.07
		c0.08,0,0.14-0.06,0.14-0.14v-8.93h8.79v8.93c0,0.08,0.06,0.14,0.14,0.14h9.07c0.08,0,0.14-0.06,0.14-0.14v-8.93h8.79v8.93
		c0,0.08,0.06,0.14,0.14,0.14h9.07c0.08,0,0.14-0.06,0.14-0.14v-8.93h8.79v8.93c0,0.08,0.06,0.14,0.14,0.14h9.07
		c0.08,0,0.14-0.06,0.14-0.14v-8.93h8.79v8.93c0,0.08,0.06,0.14,0.14,0.14h9.07c0.08,0,0.14-0.06,0.14-0.14v-8.93h8.79v8.93
		c0,0.08,0.06,0.14,0.14,0.14h9.07c0.08,0,0.14-0.06,0.14-0.14v-8.93h8.79v8.93c0,0.08,0.06,0.14,0.14,0.14h9.07
		c0.08,0,0.14-0.06,0.14-0.14v-8.93h8.79v8.93c0,0.08,0.06,0.14,0.14,0.14h9.07c0.08,0,0.14-0.06,0.14-0.14v-8.93h8.79v8.93
		c0,0.08,0.06,0.14,0.14,0.14h9.07c0.08,0,0.14-0.06,0.14-0.14v-8.93h12.05c0.08,0,0.14-0.06,0.14-0.14v-15.73h8.93
		c0.08,0,0.14-0.06,0.14-0.14V126c0-0.08-0.06-0.14-0.14-0.14h-8.93v-8.79h8.93c0.08,0,0.14-0.06,0.14-0.14v-9.07
		c0-0.08-0.06-0.14-0.14-0.14h-8.93v-8.79h8.93c0.08,0,0.14-0.06,0.14-0.14v-9.07c0-0.08-0.06-0.14-0.14-0.14h-8.93v-8.79h8.93
		c0.08,0,0.14-0.06,0.14-0.14v-9.07c0-0.08-0.06-0.14-0.14-0.14h-8.93v-8.79h8.93c0.08,0,0.14-0.06,0.14-0.14v-9.07
		c0-0.08-0.06-0.14-0.14-0.14h-8.93V37.56c0-0.08-0.06-0.14-0.14-0.14h-12.05v-8.93c0-0.08-0.06-0.14-0.14-0.14h-9.07
		c-0.08,0-0.14,0.06-0.14,0.14v8.93h-8.79v-8.93c0-0.08-0.06-0.14-0.14-0.14h-9.07c-0.08,0-0.14,0.06-0.14,0.14v8.93h-8.79v-8.93
		c0-0.08-0.06-0.14-0.14-0.14h-9.07c-0.08,0-0.14,0.06-0.14,0.14v8.93h-8.79v-8.93c0-0.08-0.06-0.14-0.14-0.14h-9.07
		c-0.08,0-0.14,0.06-0.14,0.14v8.93h-8.79v-8.93c0-0.08-0.06-0.14-0.14-0.14h-9.07c-0.08,0-0.14,0.06-0.14,0.14v8.93h-8.79v-8.93
		c0-0.08-0.06-0.14-0.14-0.14h-9.07c-0.08,0-0.14,0.06-0.14,0.14v8.93h-8.79v-8.93c0-0.08-0.06-0.14-0.14-0.14h-9.07
		c-0.08,0-0.14,0.06-0.14,0.14v8.93h-8.79v-8.93c0-0.08-0.06-0.14-0.14-0.14h-9.07c-0.08,0-0.14,0.06-0.14,0.14v8.93h-8.79v-8.93
		c0-0.08-0.06-0.14-0.14-0.14h-9.07c-0.08,0-0.14,0.06-0.14,0.14v8.93h-8.79v-8.93c0-0.08-0.06-0.14-0.14-0.14h-9.07
		c-0.08,0-0.14,0.06-0.14,0.14v8.93h-8.79v-8.93c0-0.08-0.06-0.14-0.14-0.14h-9.07c-0.08,0-0.14,0.06-0.14,0.14v8.93h-8.79v-8.93
		c0-0.08-0.06-0.14-0.14-0.14h-9.07c-0.08,0-0.14,0.06-0.14,0.14v8.93h-8.79v-8.93c0-0.08-0.06-0.14-0.14-0.14h-9.07
		c-0.08,0-0.14,0.06-0.14,0.14v8.93h-8.79v-8.93c0-0.08-0.06-0.14-0.14-0.14H342c-0.08,0-0.14,0.06-0.14,0.14v8.93h-12.05
		c-0.08,0-0.14,0.06-0.14,0.14v15.73h-8.93c-0.08,0-0.14,0.06-0.14,0.14v9.07c0,0.08,0.06,0.14,0.14,0.14h8.93v8.79h-8.93
		c-0.08,0-0.14,0.06-0.14,0.14v9.07c0,0.08,0.06,0.14,0.14,0.14h8.93v8.79h-8.93c-0.08,0-0.14,0.06-0.14,0.14v9.07
		c0,0.08,0.06,0.14,0.14,0.14h8.93v8.79h-8.93c-0.08,0-0.14,0.06-0.14,0.14v9.07c0,0.08,0.06,0.14,0.14,0.14h8.93v8.79h-8.93
		c-0.08,0-0.14,0.06-0.14,0.14v9.07c0,0.08,0.06,0.14,0.14,0.14h8.93v15.73C329.67,151.02,329.73,151.09,329.81,151.09z"/>
</g>
<path d="M315.92,164.69h-9.07h-11.74c-0.08,0-0.14,0.06-0.14,0.14v8.93h-9.69v-8.93c0-0.08-0.06-0.14-0.14-0.14h-8.16
	c-0.08,0-0.14,0.06-0.14,0.14v8.93h-9.69v-8.93c0-0.08-0.06-0.14-0.14-0.14h-8.16c-0.08,0-0.14,0.06-0.14,0.14v8.93H249v-8.93
	c0-0.08-0.06-0.14-0.14-0.14h-8.16c-0.08,0-0.14,0.06-0.14,0.14v8.93h-9.69v-8.93c0-0.08-0.06-0.14-0.14-0.14h-8.16
	c-0.08,0-0.14,0.06-0.14,0.14v8.93h-9.69v-8.93c0-0.08-0.06-0.14-0.14-0.14h-8.16c-0.08,0-0.14,0.06-0.14,0.14v8.93h-9.69v-8.93
	c0-0.08-0.06-0.14-0.14-0.14h-8.16c-0.08,0-0.14,0.06-0.14,0.14v8.93h-9.69v-8.93c0-0.08-0.06-0.14-0.14-0.14h-8.16
	c-0.08,0-0.14,0.06-0.14,0.14v8.93h-9.69v-8.93c0-0.08-0.06-0.14-0.14-0.14h-8.16c-0.08,0-0.14,0.06-0.14,0.14v8.93h-9.69v-8.93
	c0-0.08-0.06-0.14-0.14-0.14h-8.16c-0.08,0-0.14,0.06-0.14,0.14v8.93H122v-8.93c0-0.08-0.06-0.14-0.14-0.14h-8.16
	c-0.08,0-0.14,0.06-0.14,0.14v8.93h-9.69v-8.93c0-0.08-0.06-0.14-0.14-0.14h-8.16c-0.08,0-0.14,0.06-0.14,0.14v8.93h-9.69v-8.93
	c0-0.08-0.06-0.14-0.14-0.14h-8.16c-0.08,0-0.14,0.06-0.14,0.14v8.93h-9.69v-8.93c0-0.08-0.06-0.14-0.14-0.14h-8.16
	c-0.08,0-0.14,0.06-0.14,0.14v8.93h-9.69v-8.93c0-0.08-0.06-0.14-0.14-0.14H37.56h-9.07c-0.08,0-0.14,0.06-0.14,0.14v9.07v9.47
	c0,0.08,0.06,0.14,0.14,0.14h8.93v9.69h-8.93c-0.08,0-0.14,0.06-0.14,0.14v8.16c0,0.08,0.06,0.14,0.14,0.14h8.93v9.69h-8.93
	c-0.08,0-0.14,0.06-0.14,0.14v8.16c0,0.08,0.06,0.14,0.14,0.14h8.93v9.69h-8.93c-0.08,0-0.14,0.06-0.14,0.14v8.16
	c0,0.08,0.06,0.14,0.14,0.14h8.93v9.69h-8.93c-0.08,0-0.14,0.06-0.14,0.14v8.16c0,0.08,0.06,0.14,0.14,0.14h8.93v9.69h-8.93
	c-0.08,0-0.14,0.06-0.14,0.14v8.16c0,0.08,0.06,0.14,0.14,0.14h8.93v9.69h-8.93c-0.08,0-0.14,0.06-0.14,0.14v8.16
	c0,0.08,0.06,0.14,0.14,0.14h8.93v9.69h-8.93c-0.08,0-0.14,0.06-0.14,0.14v8.16c0,0.08,0.06,0.14,0.14,0.14h8.93v9.69h-8.93
	c-0.08,0-0.14,0.06-0.14,0.14v9.47v9.07c0,0.08,0.06,0.14,0.14,0.14h9.07h11.74c0.08,0,0.14-0.06,0.14-0.14v-8.93h9.69v8.93
	c0,0.08,0.06,0.14,0.14,0.14h8.16c0.08,0,0.14-0.06,0.14-0.14v-8.93h9.69v8.93c0,0.08,0.06,0.14,0.14,0.14h8.16
	c0.08,0,0.14-0.06,0.14-0.14v-8.93h9.69v8.93c0,0.08,0.06,0.14,0.14,0.14h8.16c0.08,0,0.14-0.06,0.14-0.14v-8.93h9.69v8.93
	c0,0.08,0.06,0.14,0.14,0.14h8.16c0.08,0,0.14-0.06,0.14-0.14v-8.93h9.69v8.93c0,0.08,0.06,0.14,0.14,0.14H140
	c0.08,0,0.14-0.06,0.14-0.14v-8.93h9.69v8.93c0,0.08,0.06,0.14,0.14,0.14h8.16c0.08,0,0.14-0.06,0.14-0.14v-8.93h9.69v8.93
	c0,0.08,0.06,0.14,0.14,0.14h8.16c0.08,0,0.14-0.06,0.14-0.14v-8.93h9.69v8.93c0,0.08,0.06,0.14,0.14,0.14h8.16
	c0.08,0,0.14-0.06,0.14-0.14v-8.93h9.69v8.93c0,0.08,0.06,0.14,0.14,0.14h8.16c0.08,0,0.14-0.06,0.14-0.14v-8.93h9.69v8.93
	c0,0.08,0.06,0.14,0.14,0.14h8.16c0.08,0,0.14-0.06,0.14-0.14v-8.93h9.69v8.93c0,0.08,0.06,0.14,0.14,0.14h8.16
	c0.08,0,0.14-0.06,0.14-0.14v-8.93h9.69v8.93c0,0.08,0.06,0.14,0.14,0.14H267c0.08,0,0.14-0.06,0.14-0.14v-8.93h9.69v8.93
	c0,0.08,0.06,0.14,0.14,0.14h8.16c0.08,0,0.14-0.06,0.14-0.14v-8.93h9.69v8.93c0,0.08,0.06,0.14,0.14,0.14h11.74h9.07
	c0.08,0,0.14-0.06,0.14-0.14v-9.07v-9.47c0-0.08-0.06-0.14-0.14-0.14h-8.93v-9.69h8.93c0.08,0,0.14-0.06,0.14-0.14v-8.16
	c0-0.08-0.06-0.14-0.14-0.14h-8.93v-9.69h8.93c0.08,0,0.14-0.06,0.14-0.14v-8.16c0-0.08-0.06-0.14-0.14-0.14h-8.93v-9.69h8.93
	c0.08,0,0.14-0.06,0.14-0.14v-8.16c0-0.08-0.06-0.14-0.14-0.14h-8.93v-9.69h8.93c0.08,0,0.14-0.06,0.14-0.14v-8.16
	c0-0.08-0.06-0.14-0.14-0.14h-8.93v-9.69h8.93c0.08,0,0.14-0.06,0.14-0.14v-8.16c0-0.08-0.06-0.14-0.14-0.14h-8.93v-9.69h8.93
	c0.08,0,0.14-0.06,0.14-0.14v-8.16c0-0.08-0.06-0.14-0.14-0.14h-8.93v-9.69h8.93c0.08,0,0.14-0.06,0.14-0.14v-8.16
	c0-0.08-0.06-0.14-0.14-0.14h-8.93v-9.69h8.93c0.08,0,0.14-0.06,0.14-0.14v-9.47v-9.07C316.06,164.76,316,164.69,315.92,164.69z
	 M284.17,303.87H60.24V199.84h223.94V303.87z"/>
<path d="M315.92,343.56h-9.07h-11.74c-0.08,0-0.14,0.06-0.14,0.14v8.93h-9.69v-8.93c0-0.08-0.06-0.14-0.14-0.14h-8.16
	c-0.08,0-0.14,0.06-0.14,0.14v8.93h-9.69v-8.93c0-0.08-0.06-0.14-0.14-0.14h-8.16c-0.08,0-0.14,0.06-0.14,0.14v8.93H249v-8.93
	c0-0.08-0.06-0.14-0.14-0.14h-8.16c-0.08,0-0.14,0.06-0.14,0.14v8.93h-9.69v-8.93c0-0.08-0.06-0.14-0.14-0.14h-8.16
	c-0.08,0-0.14,0.06-0.14,0.14v8.93h-9.69v-8.93c0-0.08-0.06-0.14-0.14-0.14h-8.16c-0.08,0-0.14,0.06-0.14,0.14v8.93h-9.69v-8.93
	c0-0.08-0.06-0.14-0.14-0.14h-8.16c-0.08,0-0.14,0.06-0.14,0.14v8.93h-9.69v-8.93c0-0.08-0.06-0.14-0.14-0.14h-8.16
	c-0.08,0-0.14,0.06-0.14,0.14v8.93h-9.69v-8.93c0-0.08-0.06-0.14-0.14-0.14h-8.16c-0.08,0-0.14,0.06-0.14,0.14v8.93h-9.69v-8.93
	c0-0.08-0.06-0.14-0.14-0.14h-8.16c-0.08,0-0.14,0.06-0.14,0.14v8.93H122v-8.93c0-0.08-0.06-0.14-0.14-0.14h-8.16
	c-0.08,0-0.14,0.06-0.14,0.14v8.93h-9.69v-8.93c0-0.08-0.06-0.14-0.14-0.14h-8.16c-0.08,0-0.14,0.06-0.14,0.14v8.93h-9.69v-8.93
	c0-0.08-0.06-0.14-0.14-0.14h-8.16c-0.08,0-0.14,0.06-0.14,0.14v8.93h-9.69v-8.93c0-0.08-0.06-0.14-0.14-0.14h-8.16
	c-0.08,0-0.14,0.06-0.14,0.14v8.93h-9.69v-8.93c0-0.08-0.06-0.14-0.14-0.14H37.56h-9.07c-0.08,0-0.14,0.06-0.14,0.14v9.07v9.47
	c0,0.08,0.06,0.14,0.14,0.14h8.93v9.69h-8.93c-0.08,0-0.14,0.06-0.14,0.14v8.16c0,0.08,0.06,0.14,0.14,0.14h8.93v9.69h-8.93
	c-0.08,0-0.14,0.06-0.14,0.14v8.16c0,0.08,0.06,0.14,0.14,0.14h8.93v9.69h-8.93c-0.08,0-0.14,0.06-0.14,0.14v8.16
	c0,0.08,0.06,0.14,0.14,0.14h8.93v9.69h-8.93c-0.08,0-0.14,0.06-0.14,0.14v8.16c0,0.08,0.06,0.14,0.14,0.14h8.93v9.69h-8.93
	c-0.08,0-0.14,0.06-0.14,0.14v8.16c0,0.08,0.06,0.14,0.14,0.14h8.93v9.69h-8.93c-0.08,0-0.14,0.06-0.14,0.14v8.16
	c0,0.08,0.06,0.14,0.14,0.14h8.93v9.69h-8.93c-0.08,0-0.14,0.06-0.14,0.14v8.16c0,0.08,0.06,0.14,0.14,0.14h8.93v9.69h-8.93
	c-0.08,0-0.14,0.06-0.14,0.14v9.47v9.07c0,0.08,0.06,0.14,0.14,0.14h9.07h11.74c0.08,0,0.14-0.06,0.14-0.14v-8.93h9.69v8.93
	c0,0.08,0.06,0.14,0.14,0.14h8.16c0.08,0,0.14-0.06,0.14-0.14v-8.93h9.69v8.93c0,0.08,0.06,0.14,0.14,0.14h8.16
	c0.08,0,0.14-0.06,0.14-0.14v-8.93h9.69v8.93c0,0.08,0.06,0.14,0.14,0.14h8.16c0.08,0,0.14-0.06,0.14-0.14v-8.93h9.69v8.93
	c0,0.08,0.06,0.14,0.14,0.14h8.16c0.08,0,0.14-0.06,0.14-0.14v-8.93h9.69v8.93c0,0.08,0.06,0.14,0.14,0.14H140
	c0.08,0,0.14-0.06,0.14-0.14v-8.93h9.69v8.93c0,0.08,0.06,0.14,0.14,0.14h8.16c0.08,0,0.14-0.06,0.14-0.14v-8.93h9.69v8.93
	c0,0.08,0.06,0.14,0.14,0.14h8.16c0.08,0,0.14-0.06,0.14-0.14v-8.93h9.69v8.93c0,0.08,0.06,0.14,0.14,0.14h8.16
	c0.08,0,0.14-0.06,0.14-0.14v-8.93h9.69v8.93c0,0.08,0.06,0.14,0.14,0.14h8.16c0.08,0,0.14-0.06,0.14-0.14v-8.93h9.69v8.93
	c0,0.08,0.06,0.14,0.14,0.14h8.16c0.08,0,0.14-0.06,0.14-0.14v-8.93h9.69v8.93c0,0.08,0.06,0.14,0.14,0.14h8.16
	c0.08,0,0.14-0.06,0.14-0.14v-8.93h9.69v8.93c0,0.08,0.06,0.14,0.14,0.14H267c0.08,0,0.14-0.06,0.14-0.14v-8.93h9.69v8.93
	c0,0.08,0.06,0.14,0.14,0.14h8.16c0.08,0,0.14-0.06,0.14-0.14v-8.93h9.69v8.93c0,0.08,0.06,0.14,0.14,0.14h11.74h9.07
	c0.08,0,0.14-0.06,0.14-0.14v-9.07v-9.47c0-0.08-0.06-0.14-0.14-0.14h-8.93v-9.69h8.93c0.08,0,0.14-0.06,0.14-0.14v-8.16
	c0-0.08-0.06-0.14-0.14-0.14h-8.93v-9.69h8.93c0.08,0,0.14-0.06,0.14-0.14v-8.16c0-0.08-0.06-0.14-0.14-0.14h-8.93v-9.69h8.93
	c0.08,0,0.14-0.06,0.14-0.14v-8.16c0-0.08-0.06-0.14-0.14-0.14h-8.93v-9.69h8.93c0.08,0,0.14-0.06,0.14-0.14v-8.16
	c0-0.08-0.06-0.14-0.14-0.14h-8.93v-9.69h8.93c0.08,0,0.14-0.06,0.14-0.14v-8.16c0-0.08-0.06-0.14-0.14-0.14h-8.93v-9.69h8.93
	c0.08,0,0.14-0.06,0.14-0.14v-8.16c0-0.08-0.06-0.14-0.14-0.14h-8.93v-9.69h8.93c0.08,0,0.14-0.06,0.14-0.14v-8.16
	c0-0.08-0.06-0.14-0.14-0.14h-8.93v-9.69h8.93c0.08,0,0.14-0.06,0.14-0.14v-9.47v-9.07C316.06,343.62,316,343.56,315.92,343.56z
	 M85.04,446.31c-8.61,0-15.59-6.98-15.59-15.59s6.98-15.59,15.59-15.59s15.59,6.98,15.59,15.59S93.65,446.31,85.04,446.31z"/>
</svg>
