<?xml version="1.0" encoding="utf-8"?>
<!-- Generator: Adobe Illustrator 30.4.0, SVG Export Plug-In . SVG Version: 9.03 Build 0)  -->
<svg version="1.1"
	 id="Layer_1" xmlns:cc="http://creativecommons.org/ns#" xmlns:inkscape="http://www.inkscape.org/namespaces/inkscape" xmlns:rdf="http://www.w3.org/1999/02/22-rdf-syntax-ns#" xmlns:dc="http://purl.org/dc/elements/1.1/" xmlns:svg="http://www.w3.org/2000/svg"
	 xmlns="http://www.w3.org/2000/svg" xmlns:xlink="http://www.w3.org/1999/xlink" x="0px" y="0px" viewBox="0 0 653.1 535.75"
	 style="enable-background:new 0 0 653.1 535.75;" xml:space="preserve">
<g id="p-1">
	<path d="M37.42,474.52H53.4v-9.07h9.98v9.07h8.16v-9.07h9.98v9.07h8.16v-9.07h9.98v9.07h8.16v-9.07h9.98v9.07h8.16v-9.07h9.98v9.07
		h8.16v-9.07h9.98v9.07h8.16v-9.07h9.98v9.07h8.16v-9.07h9.98v9.07h8.16v-9.07h9.98v9.07h8.16v-9.07h9.98v9.07h8.16v-9.07h9.98v9.07
		h8.16v-9.07h9.98v9.07h8.16v-9.07h9.98v9.07h8.16v-9.07h9.98v9.07h15.99h9.07v-9.07V454h-9.07v-9.98h9.07v-8.16h-9.07v-9.98h9.07
		v-8.16h-9.07v-9.98h9.07v-8.16h-9.07v-9.98h9.07v-8.16h-9.07v-9.98h9.07v-8.16h-9.07v-9.98h9.07v-8.16h-9.07v-9.98h9.07v-11.45
		v-9.07h-9.07h-15.99v9.07h-9.98v-9.07h-8.16v9.07h-9.98v-9.07h-8.16v9.07h-9.98v-9.07h-8.16v9.07h-9.98v-9.07h-8.16v9.07h-9.98
		v-9.07h-8.16v9.07h-9.98v-9.07h-8.16v9.07h-9.98v-9.07h-8.16v9.07h-9.98v-9.07h-8.16v9.07h-9.98v-9.07h-8.16v9.07h-9.98v-9.07
		h-8.16v9.07h-9.98v-9.07h-8.16v9.07h-9.98v-9.07h-8.16v9.07h-9.98v-9.07h-8.16v9.07H53.4v-9.07H37.42h-9.07v9.07v11.45h9.07v9.98
		h-9.07v8.16h9.07v9.98h-9.07v8.16h9.07v9.98h-9.07v8.16h9.07v9.98h-9.07v8.16h9.07v9.98h-9.07v8.16h9.07v9.98h-9.07v8.16h9.07V454
		h-9.07v11.45v9.07H37.42z"/>
</g>
<g id="p-2">
	<path d="M337.89,474.52h17.4v-9.07h9.98v9.07h8.16v-9.07h9.98v9.07h8.16v-9.07h9.98v9.07h8.16v-9.07h9.98v9.07h17.4v-9.07v-11.91
		h9.07v-9.07h-9.07v-9.07h9.07v-9.07h-9.07v-9.07h9.07v-9.07h-9.07v-9.07h9.07v-9.07h-9.07v-9.07h9.07v-9.07h-9.07v-9.07h9.07v-9.07
		h-9.07v-9.07h9.07v-9.07h-9.07v-11.91v-9.07h-17.4v9.07h-9.98v-9.07h-8.16v9.07h-9.98v-9.07h-8.16v9.07h-9.98v-9.07h-8.16v9.07
		h-9.98v-9.07h-17.4v9.07v11.91h-9.07v9.07h9.07v9.07h-9.07v9.07h9.07v9.07h-9.07v9.07h9.07v9.07h-9.07v9.07h9.07v9.07h-9.07v9.07
		h9.07v9.07h-9.07v9.07h9.07v9.07h-9.07v9.07h9.07v11.91V474.52z"/>
</g>
<g id="p-3">
	<path d="M337.89,310.11h17.4v-9.07h9.98v9.07h8.16v-9.07h9.98v9.07h8.16v-9.07h9.98v9.07h8.16v-9.07h9.98v9.07h17.4v-9.07v-11.91
		h9.07v-9.07h-9.07v-9.07h9.07v-9.07h-9.07v-9.07h9.07v-9.07h-9.07v-9.07h9.07v-9.07h-9.07v-9.07h9.07v-9.07h-9.07v-9.07h9.07v-9.07
		h-9.07v-9.07h9.07v-9.07h-9.07v-11.91v-9.07h-17.4v9.07h-9.98v-9.07h-8.16v9.07h-9.98v-9.07h-8.16v9.07h-9.98v-9.07h-8.16v9.07
		h-9.98v-9.07h-17.4v9.07v11.91h-9.07v9.07h9.07v9.07h-9.07v9.07h9.07v9.07h-9.07v9.07h9.07v9.07h-9.07v9.07h9.07v9.07h-9.07v9.07
		h9.07v9.07h-9.07v9.07h9.07v9.07h-9.07v9.07h9.07v11.91V310.11z"/>
</g>
<g id="p-5">
	<path d="M37.42,136.63h16.44v9.07h9.07v-9.07H72v9.07h9.07v-9.07h9.07v9.07h9.07v-9.07h9.07v9.07h9.07v-9.07h9.07v9.07h9.07v-9.07
		h9.07v9.07h9.07v-9.07h9.07v9.07h9.07v-9.07h9.07v9.07h9.07v-9.07h9.07v9.07h9.07v-9.07h9.07v9.07h9.07v-9.07h9.07v9.07h9.07v-9.07
		h9.07v9.07h9.07v-9.07h9.07v9.07h9.07v-9.07h9.07v9.07h9.07v-9.07h16.44v-17.86h9.07v-9.07h-9.07v-9.07h9.07v-9.07h-9.07v-9.07
		h9.07v-9.07h-9.07v-9.07h9.07v-9.07h-9.07V37.42h-16.44v-9.07h-9.07v9.07h-9.07v-9.07h-9.07v9.07h-9.07v-9.07h-9.07v9.07h-9.07
		v-9.07h-9.07v9.07h-9.07v-9.07h-9.07v9.07h-9.07v-9.07h-9.07v9.07h-9.07v-9.07h-9.07v9.07h-9.07v-9.07h-9.07v9.07h-9.07v-9.07
		h-9.07v9.07h-9.07v-9.07h-9.07v9.07h-9.07v-9.07h-9.07v9.07h-9.07v-9.07h-9.07v9.07h-9.07v-9.07H72v9.07h-9.07v-9.07h-9.07v9.07
		H37.42v17.86h-9.07v9.07h9.07v9.07h-9.07v9.07h9.07v9.07h-9.07v9.07h9.07v9.07h-9.07v9.07h9.07V136.63z"/>
</g>
<path d="M315.21,150.24h-15.99v9.07h-9.98v-9.07h-8.16v9.07h-9.98v-9.07h-8.16v9.07h-9.98v-9.07h-8.16v9.07h-9.98v-9.07h-8.16v9.07
	h-9.98v-9.07h-8.16v9.07h-9.98v-9.07h-8.16v9.07h-9.98v-9.07h-8.16v9.07h-9.98v-9.07h-8.16v9.07h-9.98v-9.07h-8.16v9.07h-9.98v-9.07
	h-8.16v9.07h-9.98v-9.07h-8.16v9.07h-9.98v-9.07h-8.16v9.07h-9.98v-9.07h-8.16v9.07H53.4v-9.07H37.42h-9.07v9.07v11.45h9.07v9.98
	h-9.07v8.16h9.07v9.98h-9.07v8.16h9.07v9.98h-9.07v8.16h9.07v9.98h-9.07v8.16h9.07v9.98h-9.07v8.16h9.07v9.98h-9.07v8.16h9.07v9.98
	h-9.07v11.45v9.07h9.07H53.4v-9.07h9.98v9.07h8.16v-9.07h9.98v9.07h8.16v-9.07h9.98v9.07h8.16v-9.07h9.98v9.07h8.16v-9.07h9.98v9.07
	h8.16v-9.07h9.98v9.07h8.16v-9.07h9.98v9.07h8.16v-9.07h9.98v9.07h8.16v-9.07h9.98v9.07h8.16v-9.07h9.98v9.07h8.16v-9.07h9.98v9.07
	h8.16v-9.07h9.98v9.07h8.16v-9.07h9.98v9.07h8.16v-9.07h9.98v9.07h15.99h9.07v-9.07v-11.45h-9.07v-9.98h9.07v-8.16h-9.07v-9.98h9.07
	v-8.16h-9.07v-9.98h9.07v-8.16h-9.07v-9.98h9.07v-8.16h-9.07v-9.98h9.07v-8.16h-9.07v-9.98h9.07v-8.16h-9.07v-9.98h9.07v-11.45
	v-9.07H315.21z M275.53,275.53H77.1v-90.71h198.43V275.53z"/>
<path d="M624.76,64.35v-9.07h-9.07V37.42h-16.44v-9.07h-9.07v9.07h-9.07v-9.07h-9.07v9.07h-9.07v-9.07h-9.07v9.07h-9.07v-9.07h-9.07
	v9.07h-9.07v-9.07h-9.07v9.07h-9.07v-9.07h-9.07v9.07h-9.07v-9.07h-9.07v9.07h-9.07v-9.07h-9.07v9.07h-9.07v-9.07h-9.07v9.07h-9.07
	v-9.07h-9.07v9.07h-9.07v-9.07h-9.07v9.07h-9.07v-9.07h-9.07v9.07h-9.07v-9.07h-9.07v9.07h-9.07v-9.07h-9.07v9.07h-16.44v17.86
	h-9.07v9.07h9.07v9.07h-9.07v9.07h9.07v9.07h-9.07v9.07h9.07v9.07h-9.07v9.07h9.07v17.86h16.44v9.07h9.07v-9.07h9.07v9.07h9.07
	v-9.07h9.07v9.07h9.07v-9.07h9.07v9.07h9.07v-9.07h9.07v9.07h9.07v-9.07h9.07v9.07h9.07v-9.07h9.07v9.07h9.07v-9.07h9.07v9.07h9.07
	v-9.07h9.07v9.07h9.07v-9.07h9.07v9.07h9.07v-9.07h9.07v9.07h9.07v-9.07h9.07v9.07h9.07v-9.07h9.07v9.07h9.07v-9.07h9.07v9.07h9.07
	v-9.07h16.44v-17.86h9.07v-9.07h-9.07v-9.07h9.07v-9.07h-9.07v-9.07h9.07v-9.07h-9.07v-9.07H624.76z M550.77,101.91
	c-8.22,0-14.88-6.66-14.88-14.88s6.66-14.88,14.88-14.88s14.88,6.66,14.88,14.88S558.99,101.91,550.77,101.91z"/>
</svg>
